<svg xmlns="http://www.w3.org/2000/svg" xmlns:xlink="http://www.w3.org/1999/xlink" version="1.1" data-diagram-type="SEQUENCE" style="width:1150px;height:872px;background:#FFFFFF;" width="1150px" height="872px" viewBox="0 0 1150 872" zoomAndPan="magnify" preserveAspectRatio="none" contentStyleType="text/css"><?plantuml 1.2026.8?><defs/><g font-family="sans-serif" lengthAdjust="spacing"><g><title>DP Client Trainer</title><rect x="55.679" y="47" width="8" height="777" fill="#000" fill-opacity="0"/><line x1="59.179" y1="47" x2="59.179" y2="824" style="stroke:#457B9D;stroke-width:0.5;stroke-dasharray:5,5;"/></g><g><title>JAX Autodiff Engine</title><rect x="343.866" y="47" width="8" height="777" fill="#000" fill-opacity="0"/><line x1="347.366" y1="47" x2="347.366" y2="824" style="stroke:#457B9D;stroke-width:0.5;stroke-dasharray:5,5;"/></g><g><title></title><rect x="342.366" y="166" width="10" height="28" fill="#EBF2FA" style="stroke:#181818;stroke-width:1;"/></g><g><title>Clipping . Noise Kernel</title><rect x="477.458" y="47" width="8" height="777" fill="#000" fill-opacity="0"/><line x1="480.958" y1="47" x2="480.958" y2="824" style="stroke:#457B9D;stroke-width:0.5;stroke-dasharray:5,5;"/></g><g><title></title><rect x="475.958" y="258" width="10" height="151" fill="#EBF2FA" style="stroke:#181818;stroke-width:1;"/></g><g><title></title><rect x="475.958" y="473" width="10" height="153" fill="#EBF2FA" style="stroke:#181818;stroke-width:1;"/></g><g><title>Optax Optimizer</title><rect x="760.053" y="47" width="8" height="777" fill="#000" fill-opacity="0"/><line x1="763.553" y1="47" x2="763.553" y2="824" style="stroke:#457B9D;stroke-width:0.5;stroke-dasharray:5,5;"/></g><g><title>Privacy Accountant</title><rect x="895.31" y="47" width="8" height="777" fill="#000" fill-opacity="0"/><line x1="898.81" y1="47" x2="898.81" y2="824" style="stroke:#457B9D;stroke-width:0.5;stroke-dasharray:5,5;"/></g><g><title></title><rect x="893.81" y="743" width="10" height="63" fill="#EBF2FA" style="stroke:#181818;stroke-width:1;"/></g><rect x="10" y="10" width="98.358" height="36" fill="#F8F9FA" style="stroke:#2B2D42;stroke-width:1.2;" rx="3" ry="3"/><text x="17" y="25.47" fill="#000" font-size="11" textLength="84.358" font-family="'Helvetica'">DP Client Trainer</text><text x="23.118" y="36.47" fill="#000" font-size="11" textLength="72.123" font-family="'Helvetica'">(Local Worker)</text><rect x="288.86" y="10" width="117.012" height="36" fill="#F8F9FA" style="stroke:#2B2D42;stroke-width:1.2;" rx="3" ry="3"/><text x="298.446" y="25.47" fill="#000" font-size="11" textLength="97.84" font-family="'Helvetica'">JAX Autodiff Engine</text><text x="295.86" y="36.47" fill="#000" font-size="11" textLength="103.012" font-family="'Helvetica'">(jax.vmap + jax.grad)</text><rect x="415.872" y="10" width="130.171" height="36" fill="#F8F9FA" style="stroke:#2B2D42;stroke-width:1.2;" rx="3" ry="3"/><text x="422.872" y="25.47" fill="#000" font-size="11" textLength="116.171" font-family="'Helvetica'">Clipping &amp; Noise Kernel</text><text x="440.006" y="36.47" fill="#000" font-size="11" textLength="81.904" font-family="'Helvetica'">(DP Mechanism)</text><rect x="716.821" y="10" width="93.465" height="36" fill="#F8F9FA" style="stroke:#2B2D42;stroke-width:1.2;" rx="3" ry="3"/><text x="723.821" y="25.47" fill="#000" font-size="11" textLength="79.465" font-family="'Helvetica'">Optax Optimizer</text><text x="727.784" y="36.47" fill="#000" font-size="11" textLength="71.538" font-family="'Helvetica'">(State Update)</text><rect x="820.286" y="10" width="157.048" height="36" fill="#F8F9FA" style="stroke:#2B2D42;stroke-width:1.2;" rx="3" ry="3"/><text x="851.732" y="25.47" fill="#000" font-size="11" textLength="94.155" font-family="'Helvetica'">Privacy Accountant</text><text x="827.286" y="36.47" fill="#000" font-size="11" textLength="143.048" font-family="'Helvetica'">(RDP / Moments Accountant)</text><rect x="10" y="824" width="98.358" height="36" fill="#F8F9FA" style="stroke:#2B2D42;stroke-width:1.2;" rx="3" ry="3"/><text x="17" y="839.47" fill="#000" font-size="11" textLength="84.358" font-family="'Helvetica'">DP Client Trainer</text><text x="23.118" y="850.47" fill="#000" font-size="11" textLength="72.123" font-family="'Helvetica'">(Local Worker)</text><rect x="288.86" y="824" width="117.012" height="36" fill="#F8F9FA" style="stroke:#2B2D42;stroke-width:1.2;" rx="3" ry="3"/><text x="298.446" y="839.47" fill="#000" font-size="11" textLength="97.84" font-family="'Helvetica'">JAX Autodiff Engine</text><text x="295.86" y="850.47" fill="#000" font-size="11" textLength="103.012" font-family="'Helvetica'">(jax.vmap + jax.grad)</text><rect x="415.872" y="824" width="130.171" height="36" fill="#F8F9FA" style="stroke:#2B2D42;stroke-width:1.2;" rx="3" ry="3"/><text x="422.872" y="839.47" fill="#000" font-size="11" textLength="116.171" font-family="'Helvetica'">Clipping &amp; Noise Kernel</text><text x="440.006" y="850.47" fill="#000" font-size="11" textLength="81.904" font-family="'Helvetica'">(DP Mechanism)</text><rect x="716.821" y="824" width="93.465" height="36" fill="#F8F9FA" style="stroke:#2B2D42;stroke-width:1.2;" rx="3" ry="3"/><text x="723.821" y="839.47" fill="#000" font-size="11" textLength="79.465" font-family="'Helvetica'">Optax Optimizer</text><text x="727.784" y="850.47" fill="#000" font-size="11" textLength="71.538" font-family="'Helvetica'">(State Update)</text><rect x="820.286" y="824" width="157.048" height="36" fill="#F8F9FA" style="stroke:#2B2D42;stroke-width:1.2;" rx="3" ry="3"/><text x="851.732" y="839.47" fill="#000" font-size="11" textLength="94.155" font-family="'Helvetica'">Privacy Accountant</text><text x="827.286" y="850.47" fill="#000" font-size="11" textLength="143.048" font-family="'Helvetica'">(RDP / Moments Accountant)</text><rect x="10" y="73.5" width="1129.463" height="3" fill="#EEE" style="stroke:#EEE;stroke-width:1;" rx="3" ry="3"/><line x1="10" y1="73.5" x2="1139.463" y2="73.5" style="stroke:#000;stroke-width:1;"/><line x1="10" y1="76.5" x2="1139.463" y2="76.5" style="stroke:#000;stroke-width:1;"/><rect x="456.493" y="65" width="236.476" height="19" fill="#EEE" style="stroke:#000;stroke-width:2;" rx="3" ry="3"/><text x="462.493" y="77.47" fill="#000" font-size="11" textLength="219.42" font-weight="700" font-family="'Helvetica'">Step 1: Per-Sample Gradient Computation</text><line x1="59.179" y1="114" x2="101.179" y2="114" style="stroke:#1D3557;stroke-width:1.2;"/><line x1="101.179" y1="114" x2="101.179" y2="127" style="stroke:#1D3557;stroke-width:1.2;"/><line x1="60.179" y1="127" x2="101.179" y2="127" style="stroke:#1D3557;stroke-width:1.2;"/><polygon points="70.179,123,60.179,127,70.179,131,66.179,127" fill="#1D3557" style="stroke:#1D3557;stroke-width:1;stroke-linejoin:miter;stroke-miterlimit:10;"/><text x="66.179" y="107.97" fill="#000" font-size="11" textLength="19.562" font-weight="700" font-family="'Helvetica'">[01]</text><text x="89.741" y="106.47" fill="#000" font-size="11" textLength="221.004" font-family="'Helvetica'">Sample Poisson mini-batch B = {(x₁, y₁), ..., (x</text><text x="310.745" y="108.16" fill="#000" font-size="8" font-family="'Helvetica'">B</text><text x="316.081" y="106.47" fill="#000" font-size="11" textLength="11.612" font-family="'Helvetica'">, y</text><text x="327.693" y="108.16" fill="#000" font-size="8" font-family="'Helvetica'">B</text><text x="333.029" y="106.47" fill="#000" font-size="11" textLength="7.337" font-family="'Helvetica'">)}</text><polygon points="330.366,162,340.366,166,330.366,170,334.366,166" fill="#1D3557" style="stroke:#1D3557;stroke-width:1;stroke-linejoin:miter;stroke-miterlimit:10;"/><line x1="59.179" y1="166" x2="336.366" y2="166" style="stroke:#1D3557;stroke-width:1.2;"/><text x="71.36" y="154.47" fill="#000" font-size="11" textLength="19.562" font-weight="700" font-family="'Helvetica'">[02]</text><text x="110.446" y="147.47" fill="#000" font-size="11" textLength="204.214" font-family="'Helvetica'">Compute per-sample gradients in parallel:</text><text x="94.922" y="158.47" fill="#000" font-size="11" font-weight="700" font-family="'Helvetica'">g</text><text x="101.641" y="160.16" fill="#000" font-size="8" font-family="'Helvetica'">i</text><text x="106.474" y="158.47" fill="#000" font-size="11" textLength="195.927" font-family="'Helvetica'">= jax.vmap(jax.grad(loss_fn))(params, X</text><text x="302.401" y="160.16" fill="#000" font-size="8" font-family="'Helvetica'">B</text><text x="307.737" y="158.47" fill="#000" font-size="11" textLength="13.449" font-family="'Helvetica'">, Y</text><text x="321.186" y="160.16" fill="#000" font-size="8" font-family="'Helvetica'">B</text><text x="326.522" y="158.47" fill="#000" font-size="11" font-family="'Helvetica'">)</text><polygon points="70.179,190,60.179,194,70.179,198,66.179,194" fill="#1D3557" style="stroke:#1D3557;stroke-width:1;stroke-linejoin:miter;stroke-miterlimit:10;"/><line x1="64.179" y1="194" x2="341.366" y2="194" style="stroke:#1D3557;stroke-width:1.2;stroke-dasharray:2,2;"/><text x="88.804" y="187.97" fill="#000" font-size="11" textLength="19.562" font-weight="700" font-family="'Helvetica'">[03]</text><text x="112.365" y="186.47" fill="#000" font-size="11" textLength="153.474" font-family="'Helvetica'">Batch of per-sample gradients {</text><text x="265.839" y="186.47" fill="#000" font-size="11" font-weight="700" font-family="'Helvetica'">g</text><text x="272.558" y="186.47" fill="#000" font-size="11" textLength="21.398" font-family="'Helvetica'">₁, ...,</text><text x="297.013" y="186.47" fill="#000" font-size="11" font-weight="700" font-family="'Helvetica'">g</text><text x="303.732" y="188.16" fill="#000" font-size="8" font-family="'Helvetica'">B</text><text x="309.068" y="186.47" fill="#000" font-size="11" font-family="'Helvetica'">}</text><rect x="10" y="220.5" width="1129.463" height="3" fill="#EEE" style="stroke:#EEE;stroke-width:1;" rx="3" ry="3"/><line x1="10" y1="220.5" x2="1139.463" y2="220.5" style="stroke:#000;stroke-width:1;"/><line x1="10" y1="223.5" x2="1139.463" y2="223.5" style="stroke:#000;stroke-width:1;"/><rect x="452.519" y="212" width="244.425" height="19" fill="#EEE" style="stroke:#000;stroke-width:2;" rx="3" ry="3"/><text x="458.519" y="224.47" fill="#000" font-size="11" textLength="227.369" font-weight="700" font-family="'Helvetica'">Step 2: Per-Sample Gradient Norm Clipping</text><polygon points="463.958,254,473.958,258,463.958,262,467.958,258" fill="#1D3557" style="stroke:#1D3557;stroke-width:1;stroke-linejoin:miter;stroke-miterlimit:10;"/><line x1="59.179" y1="258" x2="469.958" y2="258" style="stroke:#1D3557;stroke-width:1.2;"/><text x="143.293" y="253.47" fill="#000" font-size="11" textLength="19.562" font-weight="700" font-family="'Helvetica'">[04]</text><text x="166.854" y="253.47" fill="#000" font-size="11" textLength="224.99" font-family="'Helvetica'">Clip per-sample gradient norms to threshold C</text><line x1="485.958" y1="286" x2="527.958" y2="286" style="stroke:#1D3557;stroke-width:1.2;"/><line x1="527.958" y1="286" x2="527.958" y2="299" style="stroke:#1D3557;stroke-width:1.2;"/><line x1="486.958" y1="299" x2="527.958" y2="299" style="stroke:#1D3557;stroke-width:1.2;"/><polygon points="496.958,295,486.958,299,496.958,303,492.958,299" fill="#1D3557" style="stroke:#1D3557;stroke-width:1;stroke-linejoin:miter;stroke-miterlimit:10;"/><text x="492.958" y="279.97" fill="#000" font-size="11" textLength="19.562" font-weight="700" font-family="'Helvetica'">[05]</text><text x="516.52" y="278.47" fill="#000" font-size="11" textLength="135.948" font-family="'Helvetica'">Compute Euclidean norm: ||</text><text x="652.467" y="278.47" fill="#000" font-size="11" font-weight="700" font-family="'Helvetica'">g</text><text x="659.187" y="280.16" fill="#000" font-size="8" font-family="'Helvetica'">i</text><text x="660.964" y="278.47" fill="#000" font-size="11" textLength="95.589" font-family="'Helvetica'">||₂ for each sample i</text><line x1="485.958" y1="327" x2="527.958" y2="327" style="stroke:#1D3557;stroke-width:1.2;"/><line x1="527.958" y1="327" x2="527.958" y2="340" style="stroke:#1D3557;stroke-width:1.2;"/><line x1="486.958" y1="340" x2="527.958" y2="340" style="stroke:#1D3557;stroke-width:1.2;"/><polygon points="496.958,336,486.958,340,496.958,344,492.958,340" fill="#1D3557" style="stroke:#1D3557;stroke-width:1;stroke-linejoin:miter;stroke-miterlimit:10;"/><text x="492.958" y="320.97" fill="#000" font-size="11" textLength="19.562" font-weight="700" font-family="'Helvetica'">[06]</text><text x="516.52" y="319.47" fill="#000" font-size="11" textLength="72.145" font-family="'Helvetica'">Scaling ratio: s</text><text x="588.664" y="321.16" fill="#000" font-size="8" font-family="'Helvetica'">i</text><text x="593.498" y="319.47" fill="#000" font-size="11" textLength="75.099" font-family="'Helvetica'">= min(1.0, C / ||</text><text x="668.596" y="319.47" fill="#000" font-size="11" font-weight="700" font-family="'Helvetica'">g</text><text x="675.315" y="321.16" fill="#000" font-size="8" font-family="'Helvetica'">i</text><text x="677.093" y="319.47" fill="#000" font-size="11" textLength="12.434" font-family="'Helvetica'">||₂)</text><line x1="485.958" y1="368" x2="527.958" y2="368" style="stroke:#1D3557;stroke-width:1.2;"/><line x1="527.958" y1="368" x2="527.958" y2="381" style="stroke:#1D3557;stroke-width:1.2;"/><line x1="486.958" y1="381" x2="527.958" y2="381" style="stroke:#1D3557;stroke-width:1.2;"/><polygon points="496.958,377,486.958,381,496.958,385,492.958,381" fill="#1D3557" style="stroke:#1D3557;stroke-width:1;stroke-linejoin:miter;stroke-miterlimit:10;"/><text x="492.958" y="361.97" fill="#000" font-size="11" textLength="19.562" font-weight="700" font-family="'Helvetica'">[07]</text><text x="516.52" y="360.47" fill="#000" font-size="11" textLength="140.631" font-family="'Helvetica'">Scale per-sample gradient: ḡ</text><text x="657.151" y="362.16" fill="#000" font-size="8" font-family="'Helvetica'">i</text><text x="661.984" y="360.47" fill="#000" font-size="11" font-family="'Helvetica'">=</text><text x="671.464" y="360.47" fill="#000" font-size="11" font-weight="700" font-family="'Helvetica'">g</text><text x="678.184" y="362.16" fill="#000" font-size="8" font-family="'Helvetica'">i</text><text x="683.017" y="360.47" fill="#000" font-size="11" textLength="11.612" font-family="'Helvetica'">· s</text><text x="694.629" y="362.16" fill="#000" font-size="8" font-family="'Helvetica'">i</text><polygon points="70.179,405,60.179,409,70.179,413,66.179,409" fill="#1D3557" style="stroke:#1D3557;stroke-width:1;stroke-linejoin:miter;stroke-miterlimit:10;"/><line x1="64.179" y1="409" x2="474.958" y2="409" style="stroke:#1D3557;stroke-width:1.2;stroke-dasharray:2,2;"/><text x="180.653" y="402.97" fill="#000" font-size="11" textLength="19.562" font-weight="700" font-family="'Helvetica'">[08]</text><text x="204.215" y="401.47" fill="#000" font-size="11" textLength="141.26" font-family="'Helvetica'">Clipped gradient set {ḡ₁, ..., ḡ</text><text x="345.474" y="403.16" fill="#000" font-size="8" font-family="'Helvetica'">B</text><text x="350.81" y="401.47" fill="#000" font-size="11" font-family="'Helvetica'">}</text><rect x="10" y="435.5" width="1129.463" height="3" fill="#EEE" style="stroke:#EEE;stroke-width:1;" rx="3" ry="3"/><line x1="10" y1="435.5" x2="1139.463" y2="435.5" style="stroke:#000;stroke-width:1;"/><line x1="10" y1="438.5" x2="1139.463" y2="438.5" style="stroke:#000;stroke-width:1;"/><rect x="479.111" y="427" width="191.241" height="19" fill="#EEE" style="stroke:#000;stroke-width:2;" rx="3" ry="3"/><text x="485.111" y="439.47" fill="#000" font-size="11" textLength="174.185" font-weight="700" font-family="'Helvetica'">Step 3: Calibrated Noise Addition</text><polygon points="463.958,469,473.958,473,463.958,477,467.958,473" fill="#1D3557" style="stroke:#1D3557;stroke-width:1;stroke-linejoin:miter;stroke-miterlimit:10;"/><line x1="59.179" y1="473" x2="469.958" y2="473" style="stroke:#1D3557;stroke-width:1.2;"/><text x="131.973" y="468.47" fill="#000" font-size="11" textLength="19.562" font-weight="700" font-family="'Helvetica'">[09]</text><text x="155.535" y="468.47" fill="#000" font-size="11" textLength="247.629" font-family="'Helvetica'">Add Gaussian perturbation for (ε, δ)-DP guarantee</text><line x1="485.958" y1="506" x2="527.958" y2="506" style="stroke:#1D3557;stroke-width:1.2;"/><line x1="527.958" y1="506" x2="527.958" y2="519" style="stroke:#1D3557;stroke-width:1.2;"/><line x1="486.958" y1="519" x2="527.958" y2="519" style="stroke:#1D3557;stroke-width:1.2;"/><polygon points="496.958,515,486.958,519,496.958,523,492.958,519" fill="#1D3557" style="stroke:#1D3557;stroke-width:1;stroke-linejoin:miter;stroke-miterlimit:10;"/><text x="492.958" y="497.47" fill="#000" font-size="11" textLength="19.562" font-weight="700" font-family="'Helvetica'">[10]</text><text x="516.52" y="498.47" fill="#000" font-size="11" textLength="111.896" font-family="'Helvetica'">Sum clipped gradients:</text><text x="631.472" y="498.47" fill="#000" font-size="11" font-weight="700" font-family="'Helvetica'">G</text><text x="640.028" y="500.16" fill="#000" font-size="8" textLength="15.113" font-family="'Helvetica'">sum</text><text x="658.197" y="498.47" fill="#000" font-size="11" textLength="16.199" font-family="'Helvetica'">= Σ</text><text x="674.396" y="500.16" fill="#000" font-size="8" textLength="10.898" font-family="'Helvetica'">i=1</text><text x="685.295" y="491.16" fill="#000" font-size="8" font-family="'Helvetica'">B</text><text x="693.687" y="498.47" fill="#000" font-size="11" textLength="6.118" font-family="'Helvetica'">ḡ</text><text x="699.805" y="500.16" fill="#000" font-size="8" font-family="'Helvetica'">i</text><line x1="485.958" y1="544" x2="527.958" y2="544" style="stroke:#1D3557;stroke-width:1.2;"/><line x1="527.958" y1="544" x2="527.958" y2="557" style="stroke:#1D3557;stroke-width:1.2;"/><line x1="486.958" y1="557" x2="527.958" y2="557" style="stroke:#1D3557;stroke-width:1.2;"/><polygon points="496.958,553,486.958,557,496.958,561,492.958,557" fill="#1D3557" style="stroke:#1D3557;stroke-width:1;stroke-linejoin:miter;stroke-miterlimit:10;"/><text x="492.958" y="539.47" fill="#000" font-size="11" textLength="19.562" font-weight="700" font-family="'Helvetica'">[11]</text><text x="516.52" y="539.47" fill="#000" font-size="11" textLength="119.233" font-family="'Helvetica'">Sample Gaussian noise:</text><text x="638.809" y="539.47" fill="#000" font-size="11" font-weight="700" font-family="'Helvetica'">η</text><text x="648.573" y="539.47" fill="#000" font-size="11" textLength="60.417" font-family="'Helvetica'">~ 𝒩(0, σ² C²</text><text x="712.047" y="539.47" fill="#000" font-size="11" font-weight="700" font-family="'Helvetica'">I</text><text x="715.103" y="539.47" fill="#000" font-size="11" font-family="'Helvetica'">)</text><line x1="485.958" y1="585" x2="527.958" y2="585" style="stroke:#1D3557;stroke-width:1.2;"/><line x1="527.958" y1="585" x2="527.958" y2="598" style="stroke:#1D3557;stroke-width:1.2;"/><line x1="486.958" y1="598" x2="527.958" y2="598" style="stroke:#1D3557;stroke-width:1.2;"/><polygon points="496.958,594,486.958,598,496.958,602,492.958,598" fill="#1D3557" style="stroke:#1D3557;stroke-width:1;stroke-linejoin:miter;stroke-miterlimit:10;"/><text x="492.958" y="578.97" fill="#000" font-size="11" textLength="19.562" font-weight="700" font-family="'Helvetica'">[12]</text><text x="516.52" y="577.47" fill="#000" font-size="11" textLength="121.661" font-family="'Helvetica'">Form privatized gradient:</text><text x="641.236" y="577.47" fill="#000" font-size="11" font-weight="700" font-family="'Helvetica'">G</text><text x="649.792" y="579.16" fill="#000" font-size="8" textLength="24.012" font-family="'Helvetica'">private</text><text x="676.86" y="577.47" fill="#000" font-size="11" textLength="13.143" font-family="'Helvetica'">= (</text><text x="690.003" y="577.47" fill="#000" font-size="11" font-weight="700" font-family="'Helvetica'">G</text><text x="698.56" y="579.16" fill="#000" font-size="8" textLength="15.113" font-family="'Helvetica'">sum</text><text x="716.729" y="577.47" fill="#000" font-size="11" font-family="'Helvetica'">+</text><text x="726.209" y="577.47" fill="#000" font-size="11" font-weight="700" font-family="'Helvetica'">η</text><text x="732.917" y="577.47" fill="#000" font-size="11" textLength="20.168" font-family="'Helvetica'">) / B</text><polygon points="70.179,622,60.179,626,70.179,630,66.179,626" fill="#1D3557" style="stroke:#1D3557;stroke-width:1;stroke-linejoin:miter;stroke-miterlimit:10;"/><line x1="64.179" y1="626" x2="474.958" y2="626" style="stroke:#1D3557;stroke-width:1.2;stroke-dasharray:2,2;"/><text x="168.275" y="619.97" fill="#000" font-size="11" textLength="19.562" font-weight="700" font-family="'Helvetica'">[13]</text><text x="191.837" y="618.47" fill="#000" font-size="11" textLength="139.401" font-family="'Helvetica'">Differentially private gradient</text><text x="334.294" y="618.47" fill="#000" font-size="11" font-weight="700" font-family="'Helvetica'">G</text><text x="342.85" y="620.16" fill="#000" font-size="8" textLength="24.012" font-family="'Helvetica'">private</text><rect x="10" y="652.5" width="1129.463" height="3" fill="#EEE" style="stroke:#EEE;stroke-width:1;" rx="3" ry="3"/><line x1="10" y1="652.5" x2="1139.463" y2="652.5" style="stroke:#000;stroke-width:1;"/><line x1="10" y1="655.5" x2="1139.463" y2="655.5" style="stroke:#000;stroke-width:1;"/><rect x="448.235" y="644" width="252.992" height="19" fill="#EEE" style="stroke:#000;stroke-width:2;" rx="3" ry="3"/><text x="454.235" y="656.47" fill="#000" font-size="11" textLength="235.936" font-weight="700" font-family="'Helvetica'">Step 4: Model State &amp; Privacy Budget Update</text><polygon points="751.553,689,761.553,693,751.553,697,755.553,693" fill="#1D3557" style="stroke:#1D3557;stroke-width:1;stroke-linejoin:miter;stroke-miterlimit:10;"/><line x1="59.179" y1="693" x2="757.553" y2="693" style="stroke:#1D3557;stroke-width:1.2;"/><text x="261.767" y="686.97" fill="#000" font-size="11" textLength="19.562" font-weight="700" font-family="'Helvetica'">[14]</text><text x="285.329" y="685.47" fill="#000" font-size="11" textLength="188.037" font-family="'Helvetica'">updates, opt_state = optimizer.update(</text><text x="473.365" y="685.47" fill="#000" font-size="11" font-weight="700" font-family="'Helvetica'">G</text><text x="481.921" y="687.16" fill="#000" font-size="8" textLength="24.012" font-family="'Helvetica'">private</text><text x="505.933" y="685.47" fill="#000" font-size="11" textLength="55.032" font-family="'Helvetica'">, opt_state)</text><polygon points="751.553,714,761.553,718,751.553,722,755.553,718" fill="#1D3557" style="stroke:#1D3557;stroke-width:1;stroke-linejoin:miter;stroke-miterlimit:10;"/><line x1="59.179" y1="718" x2="757.553" y2="718" style="stroke:#1D3557;stroke-width:1.2;"/><text x="279.584" y="713.47" fill="#000" font-size="11" textLength="19.562" font-weight="700" font-family="'Helvetica'">[15]</text><text x="303.146" y="713.47" fill="#000" font-size="11" textLength="240.002" font-family="'Helvetica'">params = optax.apply_updates(params, updates)</text><polygon points="881.81,739,891.81,743,881.81,747,885.81,743" fill="#1D3557" style="stroke:#1D3557;stroke-width:1;stroke-linejoin:miter;stroke-miterlimit:10;"/><line x1="59.179" y1="743" x2="887.81" y2="743" style="stroke:#1D3557;stroke-width:1.2;"/><text x="351" y="738.47" fill="#000" font-size="11" textLength="19.562" font-weight="700" font-family="'Helvetica'">[16]</text><text x="374.561" y="738.47" fill="#000" font-size="11" textLength="227.428" font-family="'Helvetica'">step(sample_rate = B / N, noise_multiplier = σ)</text><line x1="903.81" y1="768" x2="945.81" y2="768" style="stroke:#1D3557;stroke-width:1.2;"/><line x1="945.81" y1="768" x2="945.81" y2="781" style="stroke:#1D3557;stroke-width:1.2;"/><line x1="904.81" y1="781" x2="945.81" y2="781" style="stroke:#1D3557;stroke-width:1.2;"/><polygon points="914.81,777,904.81,781,914.81,785,910.81,781" fill="#1D3557" style="stroke:#1D3557;stroke-width:1;stroke-linejoin:miter;stroke-miterlimit:10;"/><text x="910.81" y="763.47" fill="#000" font-size="11" textLength="19.562" font-weight="700" font-family="'Helvetica'">[17]</text><text x="934.372" y="763.47" fill="#000" font-size="11" textLength="198.091" font-family="'Helvetica'">Accumulate Rényi DP divergence orders</text><polygon points="70.179,802,60.179,806,70.179,810,66.179,806" fill="#1D3557" style="stroke:#1D3557;stroke-width:1;stroke-linejoin:miter;stroke-miterlimit:10;"/><line x1="64.179" y1="806" x2="892.81" y2="806" style="stroke:#1D3557;stroke-width:1.2;stroke-dasharray:2,2;"/><text x="379.426" y="801.47" fill="#000" font-size="11" textLength="19.562" font-weight="700" font-family="'Helvetica'">[18]</text><text x="402.988" y="801.47" fill="#000" font-size="11" textLength="170.575" font-family="'Helvetica'">Current spent privacy budget (ε, δ)</text><?plantuml-src VLRDRjj64BxpAGOg452895kAtJI49K0_bljZkqAKeYcQGbYHAsfhSfVT9HshjWlKwHFqtbDFkHOjSa-lXVCEUO8-GcUvf4GgL0sO4dTslldcczbPgGl68o992A7WmbrA4L9Oa41HIwrDQaayyP9n_mEB50dtN24vbV1nOTsZ2v84yLZm-9mWOkrJ6bpIcBcaLhrhodwaq6uNWz8V4ifTUaQL8Zxj1ypdu58UKsaLjk4JOLb4U0pN5k3VWBWNVafiA08XuQFn9-Cduxwn2UbHcQrt1ftHGQUm_cp9t0kEyQ3TwbYtLWMRB4PVIl4oWscF7XqUFjuibr7qyYbRq5F6QIdwmU7ZmPDHsRxD_7WmxY1pP4AIMF0adAFEjQDvxzlz_U-EzkQzccKL1QYD9Z0C68e4poH1HFc2swV29G5yBUG5bVKQ49NRogwVzvz37wDuRB60O-xZ3dJ-dborBaCImKFGNtr9F8E1syl-63UAT8yyW7F158KlABP5W1X8weowIyAP2etpQ5Bs_JAAoHNWauNO1vhqD2OnXQyY3p-CJxgdx3QHx9AuA-YxBeeMunfwFiLmUt26VSnZLJ0PbCsxPNMxC8rf16q79bGsfoIC0Wedc6Agu524KO8qcE3GxLfMfXeqUxc0u43cDC6C5UuB6MVDEOdT9GoW2zVsrVkxdnkmmcUz0QrMgm7srP5Avht1qPx-G5lnjNvR3ADBucGyA4J8KPbmViPH0UFw190We87pWcDd-BejKaXc8956NaGxBw4T2ALc2rwlssbxgmOyBxFwfiJA8cwCKYC9NNPDgrbIOP1cB1RL7AzpMgaMgGWbebcKMykZfJZh0dMg2tGkP0ZhjiCI5QJ39d1IMnKbuEYf81OGBoLLIn5uCDpaYDs9xckGJFxZn0qOCkIfjmCtDrLgtzoylxk31HvUp6K9MM1M19pYSTI4fMuj1zHMiR25x7Phlm53REF_2LBVngpi40VyVtxPYb3P9M_Vb9cawAKYfqfJRwEYeZXo4NvJrZnMLKLHrNL17o4QYZ172H3GZ8k-vx7yh6qN4crmGXAb6CgFMSQ9d9k3gPMsx_zgmFsVzIRkzHFiPxmZwAvoJfCGtArCbACrELbhef9mBTRzxqQLRjiiuLjayejwszgMucJDchFcEiaqplqR7GX-Wdz_-_MrZOL-z-hj7p34VpH-fcsbqevrbqTwqiKu6xr2PKkSpGwwvctloEZXXa8T6spmOPr7U05GYH4OZfLL5hfmU7Q7tLNk0mVdiKS3C5Fz0UI3Uv1uFZQH6VDRXJTtWWD9QiG99Q9ufbA0hlvkhegMCTkxIHKSwrNuPW0QJ1oF98g2rImBkfwEsNi9O7EL88h2F6rpzcRIS1oWlESDK_XPYBzpM8HNiqJBkrU5YLguaGg8s_ZuaY26TdZwzsk-OhevF7P9fP_-B4b_MQWIGldm9bAcPpRIpoZJVsxqpmzGiNu5Mly1?></g></svg>
