<svg xmlns="http://www.w3.org/2000/svg" xmlns:xlink="http://www.w3.org/1999/xlink" version="1.1" data-diagram-type="SEQUENCE" style="width:1168px;height:902px;background:#FFFFFF;" width="1168px" height="902px" viewBox="0 0 1168 902" zoomAndPan="magnify" preserveAspectRatio="none" contentStyleType="text/css"><?plantuml 1.2026.8?><defs/><g font-family="sans-serif" lengthAdjust="spacing"><rect x="52.651" y="246" width="1095.641" height="305" fill="none" style="stroke:#457B9D;stroke-width:1.5;" rx="3" ry="3"/><rect x="696.119" y="329" width="427.173" height="142" fill="none" style="stroke:#457B9D;stroke-width:1.5;" rx="3" ry="3"/><rect x="715.119" y="356" width="383.173" height="101" fill="none" style="stroke:#457B9D;stroke-width:1.5;" rx="3" ry="3"/><g><title>Flower ServerApp</title><rect x="65.151" y="47" width="8" height="807" fill="#000" fill-opacity="0"/><line x1="68.651" y1="47" x2="68.651" y2="854" style="stroke:#457B9D;stroke-width:0.5;stroke-dasharray:5,5;"/></g><g><title>Aggregator Strategy</title><rect x="333.856" y="47" width="8" height="807" fill="#000" fill-opacity="0"/><line x1="337.356" y1="47" x2="337.356" y2="854" style="stroke:#457B9D;stroke-width:0.5;stroke-dasharray:5,5;"/></g><g><title></title><rect x="332.356" y="621" width="10" height="85" fill="#EBF2FA" style="stroke:#181818;stroke-width:1;"/></g><g><title>ClientManager</title><rect x="622.918" y="47" width="8" height="807" fill="#000" fill-opacity="0"/><line x1="626.418" y1="47" x2="626.418" y2="854" style="stroke:#457B9D;stroke-width:0.5;stroke-dasharray:5,5;"/></g><g><title>ClientApp k</title><rect x="727.619" y="47" width="8" height="807" fill="#000" fill-opacity="0"/><line x1="731.119" y1="47" x2="731.119" y2="854" style="stroke:#457B9D;stroke-width:0.5;stroke-dasharray:5,5;"/></g><g><title></title><rect x="726.119" y="289" width="10" height="254" fill="#EBF2FA" style="stroke:#181818;stroke-width:1;"/></g><g><title>Local JAX.Flax Engine</title><rect x="1078.792" y="47" width="8" height="807" fill="#000" fill-opacity="0"/><line x1="1082.292" y1="47" x2="1082.292" y2="854" style="stroke:#457B9D;stroke-width:0.5;stroke-dasharray:5,5;"/></g><rect x="10" y="10" width="117.302" height="36" fill="#F8F9FA" style="stroke:#2B2D42;stroke-width:1.2;" rx="3" ry="3"/><text x="24.635" y="25.47" fill="#000" font-size="11" textLength="88.032" font-family="'Helvetica'">Flower ServerApp</text><text x="17" y="36.47" fill="#000" font-size="11" textLength="103.302" font-family="'Helvetica'">(Coordinator / Driver)</text><rect x="254.549" y="10" width="165.615" height="36" fill="#F8F9FA" style="stroke:#2B2D42;stroke-width:1.2;" rx="3" ry="3"/><text x="288.133" y="25.47" fill="#000" font-size="11" textLength="98.447" font-family="'Helvetica'">Aggregator Strategy</text><text x="261.549" y="36.47" fill="#000" font-size="11" textLength="151.615" font-family="'Helvetica'">(FedAvg / FedMuon / FedProx)</text><rect x="574.476" y="10" width="103.885" height="36" fill="#F8F9FA" style="stroke:#2B2D42;stroke-width:1.2;" rx="3" ry="3"/><text x="590.649" y="25.47" fill="#000" font-size="11" textLength="71.538" font-family="'Helvetica'">ClientManager</text><text x="581.476" y="36.47" fill="#000" font-size="11" textLength="89.885" font-family="'Helvetica'">(Selection Engine)</text><rect x="688.361" y="10" width="85.516" height="36" fill="#F8F9FA" style="stroke:#2B2D42;stroke-width:1.2;" rx="3" ry="3"/><text x="702.993" y="25.47" fill="#000" font-size="11" textLength="56.251" font-family="'Helvetica'">ClientApp k</text><text x="695.361" y="36.47" fill="#000" font-size="11" textLength="71.516" font-family="'Helvetica'">(Edge Worker)</text><rect x="1019.957" y="10" width="124.671" height="36" fill="#F8F9FA" style="stroke:#2B2D42;stroke-width:1.2;" rx="3" ry="3"/><text x="1026.957" y="25.47" fill="#000" font-size="11" textLength="110.671" font-family="'Helvetica'">Local JAX/Flax Engine</text><text x="1038.58" y="36.47" fill="#000" font-size="11" textLength="87.425" font-family="'Helvetica'">(Autodiff &amp; Optax)</text><rect x="10" y="854" width="117.302" height="36" fill="#F8F9FA" style="stroke:#2B2D42;stroke-width:1.2;" rx="3" ry="3"/><text x="24.635" y="869.47" fill="#000" font-size="11" textLength="88.032" font-family="'Helvetica'">Flower ServerApp</text><text x="17" y="880.47" fill="#000" font-size="11" textLength="103.302" font-family="'Helvetica'">(Coordinator / Driver)</text><rect x="254.549" y="854" width="165.615" height="36" fill="#F8F9FA" style="stroke:#2B2D42;stroke-width:1.2;" rx="3" ry="3"/><text x="288.133" y="869.47" fill="#000" font-size="11" textLength="98.447" font-family="'Helvetica'">Aggregator Strategy</text><text x="261.549" y="880.47" fill="#000" font-size="11" textLength="151.615" font-family="'Helvetica'">(FedAvg / FedMuon / FedProx)</text><rect x="574.476" y="854" width="103.885" height="36" fill="#F8F9FA" style="stroke:#2B2D42;stroke-width:1.2;" rx="3" ry="3"/><text x="590.649" y="869.47" fill="#000" font-size="11" textLength="71.538" font-family="'Helvetica'">ClientManager</text><text x="581.476" y="880.47" fill="#000" font-size="11" textLength="89.885" font-family="'Helvetica'">(Selection Engine)</text><rect x="688.361" y="854" width="85.516" height="36" fill="#F8F9FA" style="stroke:#2B2D42;stroke-width:1.2;" rx="3" ry="3"/><text x="702.993" y="869.47" fill="#000" font-size="11" textLength="56.251" font-family="'Helvetica'">ClientApp k</text><text x="695.361" y="880.47" fill="#000" font-size="11" textLength="71.516" font-family="'Helvetica'">(Edge Worker)</text><rect x="1019.957" y="854" width="124.671" height="36" fill="#F8F9FA" style="stroke:#2B2D42;stroke-width:1.2;" rx="3" ry="3"/><text x="1026.957" y="869.47" fill="#000" font-size="11" textLength="110.671" font-family="'Helvetica'">Local JAX/Flax Engine</text><text x="1038.58" y="880.47" fill="#000" font-size="11" textLength="87.425" font-family="'Helvetica'">(Autodiff &amp; Optax)</text><rect x="10" y="73.5" width="1147.292" height="3" fill="#EEE" style="stroke:#EEE;stroke-width:1;" rx="3" ry="3"/><line x1="10" y1="73.5" x2="1157.292" y2="73.5" style="stroke:#000;stroke-width:1;"/><line x1="10" y1="76.5" x2="1157.292" y2="76.5" style="stroke:#000;stroke-width:1;"/><rect x="521.042" y="65" width="125.208" height="19" fill="#EEE" style="stroke:#000;stroke-width:2;" rx="3" ry="3"/><text x="527.042" y="77.47" fill="#000" font-size="11" textLength="108.152" font-weight="700" font-family="'Helvetica'">Round t Initialization</text><polygon points="325.356,110,335.356,114,325.356,118,329.356,114" fill="#1D3557" style="stroke:#1D3557;stroke-width:1;stroke-linejoin:miter;stroke-miterlimit:10;"/><line x1="68.651" y1="114" x2="331.356" y2="114" style="stroke:#1D3557;stroke-width:1.2;"/><text x="80.976" y="107.97" fill="#000" font-size="11" textLength="19.562" font-weight="700" font-family="'Helvetica'">[01]</text><text x="104.538" y="106.47" fill="#000" font-size="11" textLength="206.051" font-family="'Helvetica'">configure_fit(server_round=t, parameters=</text><text x="310.589" y="106.47" fill="#000" font-size="11" font-weight="700" font-family="'Helvetica'">w</text><text x="319.145" y="108.16" fill="#000" font-size="8" font-family="'Helvetica'">t</text><text x="321.368" y="106.47" fill="#000" font-size="11" font-family="'Helvetica'">)</text><polygon points="614.418,135,624.418,139,614.418,143,618.418,139" fill="#1D3557" style="stroke:#1D3557;stroke-width:1;stroke-linejoin:miter;stroke-miterlimit:10;"/><line x1="337.356" y1="139" x2="620.418" y2="139" style="stroke:#1D3557;stroke-width:1.2;"/><text x="349.356" y="134.47" fill="#000" font-size="11" textLength="19.562" font-weight="700" font-family="'Helvetica'">[02]</text><text x="372.918" y="134.47" fill="#000" font-size="11" textLength="241.5" font-family="'Helvetica'">sample_clients(fraction_fit, min_available_clients)</text><polygon points="348.356,163,338.356,167,348.356,171,344.356,167" fill="#1D3557" style="stroke:#1D3557;stroke-width:1;stroke-linejoin:miter;stroke-miterlimit:10;"/><line x1="342.356" y1="167" x2="625.418" y2="167" style="stroke:#1D3557;stroke-width:1.2;stroke-dasharray:2,2;"/><text x="372.542" y="160.97" fill="#000" font-size="11" textLength="19.562" font-weight="700" font-family="'Helvetica'">[03]</text><text x="396.103" y="159.47" fill="#000" font-size="11" textLength="85.599" font-family="'Helvetica'">selected clients S</text><text x="481.702" y="161.16" fill="#000" font-size="8" font-family="'Helvetica'">t</text><text x="486.981" y="159.47" fill="#000" font-size="11" textLength="41.277" font-family="'Helvetica'">= {Client</text><text x="528.258" y="161.16" fill="#000" font-size="8" font-family="'Helvetica'">1</text><text x="532.707" y="159.47" fill="#000" font-size="11" textLength="49.516" font-family="'Helvetica'">, ..., Client</text><text x="582.223" y="161.16" fill="#000" font-size="8" font-family="'Helvetica'">K</text><text x="587.559" y="159.47" fill="#000" font-size="11" font-family="'Helvetica'">}</text><polygon points="79.651,191,69.651,195,79.651,199,75.651,195" fill="#1D3557" style="stroke:#1D3557;stroke-width:1;stroke-linejoin:miter;stroke-miterlimit:10;"/><line x1="73.651" y1="195" x2="336.356" y2="195" style="stroke:#1D3557;stroke-width:1.2;stroke-dasharray:2,2;"/><text x="90.15" y="188.97" fill="#000" font-size="11" textLength="19.562" font-weight="700" font-family="'Helvetica'">[04]</text><text x="113.712" y="187.47" fill="#000" font-size="11" textLength="188.311" font-family="'Helvetica'">Client instructions &amp; global parameters</text><text x="305.078" y="187.47" fill="#000" font-size="11" font-weight="700" font-family="'Helvetica'">w</text><text x="313.635" y="189.16" fill="#000" font-size="8" font-family="'Helvetica'">t</text><rect x="10" y="221.5" width="1147.292" height="3" fill="#EEE" style="stroke:#EEE;stroke-width:1;" rx="3" ry="3"/><line x1="10" y1="221.5" x2="1157.292" y2="221.5" style="stroke:#000;stroke-width:1;"/><line x1="10" y1="224.5" x2="1157.292" y2="224.5" style="stroke:#000;stroke-width:1;"/><rect x="486.798" y="213" width="193.695" height="19" fill="#EEE" style="stroke:#000;stroke-width:2;" rx="3" ry="3"/><text x="492.798" y="225.47" fill="#000" font-size="11" textLength="176.639" font-weight="700" font-family="'Helvetica'">Broadcast &amp; Local Client Training</text><path d="M55.651,246 L120.865,246 L120.865,249 L110.865,259 L52.651,259 L52.651,249 A3,3 0 0 1 55.651,246" style="stroke:#457B9D;stroke-width:1.5;" fill="#EEE"/><rect x="52.651" y="246" width="1095.641" height="305" fill="none" style="stroke:#457B9D;stroke-width:1.5;" rx="3" ry="3"/><text x="67.651" y="255.47" fill="#000" font-size="11" textLength="23.214" font-weight="700" font-family="'Helvetica'">loop</text><text x="135.865" y="256.47" fill="#000" font-size="11" textLength="157.341" font-weight="700" font-family="'Helvetica'">[For each selected client k ∈ S</text><text x="293.206" y="258.16" fill="#000" font-size="8" font-weight="700" font-family="'Helvetica'">t</text><text x="295.87" y="256.47" fill="#000" font-size="11" font-weight="700" font-family="'Helvetica'">]</text><polygon points="714.119,285,724.119,289,714.119,293,718.119,289" fill="#1D3557" style="stroke:#1D3557;stroke-width:1;stroke-linejoin:miter;stroke-miterlimit:10;"/><line x1="68.651" y1="289" x2="720.119" y2="289" style="stroke:#1D3557;stroke-width:1.2;"/><text x="323.512" y="282.97" fill="#000" font-size="11" textLength="19.562" font-weight="700" font-family="'Helvetica'">[05]</text><text x="347.074" y="281.47" fill="#000" font-size="11" textLength="74.277" font-family="'Helvetica'">fit(parameters=</text><text x="421.351" y="281.47" fill="#000" font-size="11" font-weight="700" font-family="'Helvetica'">w</text><text x="429.907" y="283.16" fill="#000" font-size="8" font-family="'Helvetica'">t</text><text x="432.129" y="281.47" fill="#000" font-size="11" textLength="39.128" font-family="'Helvetica'">, config)</text><polygon points="1070.292,313,1080.292,317,1070.292,321,1074.292,317" fill="#1D3557" style="stroke:#1D3557;stroke-width:1;stroke-linejoin:miter;stroke-miterlimit:10;"/><line x1="736.119" y1="317" x2="1076.292" y2="317" style="stroke:#1D3557;stroke-width:1.2;"/><text x="813.771" y="310.97" fill="#000" font-size="11" textLength="19.562" font-weight="700" font-family="'Helvetica'">[06]</text><text x="837.332" y="309.47" fill="#000" font-size="11" textLength="152.867" font-family="'Helvetica'">unpack_parameters_to_pytree(</text><text x="990.199" y="309.47" fill="#000" font-size="11" font-weight="700" font-family="'Helvetica'">w</text><text x="998.755" y="311.16" fill="#000" font-size="8" font-family="'Helvetica'">t</text><text x="1000.978" y="309.47" fill="#000" font-size="11" font-family="'Helvetica'">)</text><path d="M699.119,329 L764.333,329 L764.333,332 L754.333,342 L696.119,342 L696.119,332 A3,3 0 0 1 699.119,329" style="stroke:#457B9D;stroke-width:1.5;" fill="#EEE"/><rect x="696.119" y="329" width="427.173" height="142" fill="none" style="stroke:#457B9D;stroke-width:1.5;" rx="3" ry="3"/><text x="711.119" y="338.47" fill="#000" font-size="11" textLength="23.214" font-weight="700" font-family="'Helvetica'">loop</text><text x="779.333" y="339.47" fill="#000" font-size="11" textLength="129.282" font-weight="700" font-family="'Helvetica'">[Local Epoch e = 1, ..., E]</text><path d="M718.119,356 L783.333,356 L783.333,359 L773.333,369 L715.119,369 L715.119,359 A3,3 0 0 1 718.119,356" style="stroke:#457B9D;stroke-width:1.5;" fill="#EEE"/><rect x="715.119" y="356" width="383.173" height="101" fill="none" style="stroke:#457B9D;stroke-width:1.5;" rx="3" ry="3"/><text x="730.119" y="365.47" fill="#000" font-size="11" textLength="23.214" font-weight="700" font-family="'Helvetica'">loop</text><text x="798.333" y="366.47" fill="#000" font-size="11" textLength="72.714" font-weight="700" font-family="'Helvetica'">[Mini-batch (X</text><text x="871.047" y="368.16" fill="#000" font-size="8" font-weight="700" font-family="'Helvetica'">b</text><text x="875.933" y="366.47" fill="#000" font-size="11" textLength="13.449" font-weight="700" font-family="'Helvetica'">, Y</text><text x="889.383" y="368.16" fill="#000" font-size="8" font-weight="700" font-family="'Helvetica'">b</text><text x="894.269" y="366.47" fill="#000" font-size="11" textLength="102.668" font-weight="700" font-family="'Helvetica'">) in local partition D</text><text x="996.938" y="368.16" fill="#000" font-size="8" font-weight="700" font-family="'Helvetica'">k</text><text x="1001.387" y="366.47" fill="#000" font-size="11" font-weight="700" font-family="'Helvetica'">]</text><polygon points="1070.292,395,1080.292,399,1070.292,403,1074.292,399" fill="#1D3557" style="stroke:#1D3557;stroke-width:1;stroke-linejoin:miter;stroke-miterlimit:10;"/><line x1="736.119" y1="399" x2="1076.292" y2="399" style="stroke:#1D3557;stroke-width:1.2;"/><text x="789.813" y="392.97" fill="#000" font-size="11" textLength="19.562" font-weight="700" font-family="'Helvetica'">[07]</text><text x="813.375" y="391.47" fill="#000" font-size="11" textLength="189.213" font-family="'Helvetica'">loss, grads = jax.jit(grad_fn)(params, X</text><text x="1002.587" y="393.16" fill="#000" font-size="8" font-family="'Helvetica'">b</text><text x="1007.037" y="391.47" fill="#000" font-size="11" textLength="13.449" font-family="'Helvetica'">, Y</text><text x="1020.486" y="393.16" fill="#000" font-size="8" font-family="'Helvetica'">b</text><text x="1024.935" y="391.47" fill="#000" font-size="11" font-family="'Helvetica'">)</text><polygon points="1070.292,420,1080.292,424,1070.292,428,1074.292,424" fill="#1D3557" style="stroke:#1D3557;stroke-width:1;stroke-linejoin:miter;stroke-miterlimit:10;"/><line x1="736.119" y1="424" x2="1076.292" y2="424" style="stroke:#1D3557;stroke-width:1.2;"/><text x="745.619" y="419.47" fill="#000" font-size="11" textLength="19.562" font-weight="700" font-family="'Helvetica'">[08]</text><text x="769.18" y="419.47" fill="#000" font-size="11" textLength="303.612" font-family="'Helvetica'">updates, opt_state = optax_optimizer.update(grads, opt_state)</text><polygon points="1070.292,445,1080.292,449,1070.292,453,1074.292,449" fill="#1D3557" style="stroke:#1D3557;stroke-width:1;stroke-linejoin:miter;stroke-miterlimit:10;"/><line x1="736.119" y1="449" x2="1076.292" y2="449" style="stroke:#1D3557;stroke-width:1.2;"/><text x="777.424" y="444.47" fill="#000" font-size="11" textLength="19.562" font-weight="700" font-family="'Helvetica'">[09]</text><text x="800.985" y="444.47" fill="#000" font-size="11" textLength="240.002" font-family="'Helvetica'">params = optax.apply_updates(params, updates)</text><polygon points="1070.292,506,1080.292,510,1070.292,514,1074.292,510" fill="#1D3557" style="stroke:#1D3557;stroke-width:1;stroke-linejoin:miter;stroke-miterlimit:10;"/><line x1="736.119" y1="510" x2="1076.292" y2="510" style="stroke:#1D3557;stroke-width:1.2;"/><text x="786.894" y="501.47" fill="#000" font-size="11" textLength="19.562" font-weight="700" font-family="'Helvetica'">[10]</text><text x="810.455" y="502.47" fill="#000" font-size="11" textLength="194.106" font-family="'Helvetica'">extract_leaves(params) -> local weights</text><text x="1007.617" y="502.47" fill="#000" font-size="11" font-weight="700" font-family="'Helvetica'">w</text><text x="1016.174" y="504.16" fill="#000" font-size="8" textLength="11.344" font-family="'Helvetica'">t+1</text><text x="1027.517" y="495.16" fill="#000" font-size="8" font-family="'Helvetica'">k</text><polygon points="79.651,539,69.651,543,79.651,547,75.651,543" fill="#1D3557" style="stroke:#1D3557;stroke-width:1;stroke-linejoin:miter;stroke-miterlimit:10;"/><line x1="73.651" y1="543" x2="725.119" y2="543" style="stroke:#1D3557;stroke-width:1.2;stroke-dasharray:2,2;"/><text x="249.9" y="534.47" fill="#000" font-size="11" textLength="19.562" font-weight="700" font-family="'Helvetica'">[11]</text><text x="273.461" y="535.47" fill="#000" font-size="11" textLength="97.501" font-family="'Helvetica'">FitRes(parameters=</text><text x="370.963" y="535.47" fill="#000" font-size="11" font-weight="700" font-family="'Helvetica'">w</text><text x="379.519" y="537.16" fill="#000" font-size="8" textLength="11.344" font-family="'Helvetica'">t+1</text><text x="390.863" y="528.16" fill="#000" font-size="8" font-family="'Helvetica'">k</text><text x="394.863" y="535.47" fill="#000" font-size="11" textLength="97.931" font-family="'Helvetica'">, num_examples=|D</text><text x="492.794" y="537.16" fill="#000" font-size="8" font-family="'Helvetica'">k</text><text x="496.794" y="535.47" fill="#000" font-size="11" textLength="48.077" font-family="'Helvetica'">|, metrics)</text><rect x="10" y="583.5" width="1147.292" height="3" fill="#EEE" style="stroke:#EEE;stroke-width:1;" rx="3" ry="3"/><line x1="10" y1="583.5" x2="1157.292" y2="583.5" style="stroke:#000;stroke-width:1;"/><line x1="10" y1="586.5" x2="1157.292" y2="586.5" style="stroke:#000;stroke-width:1;"/><rect x="496.276" y="575" width="174.741" height="19" fill="#EEE" style="stroke:#000;stroke-width:2;" rx="3" ry="3"/><text x="502.276" y="587.47" fill="#000" font-size="11" textLength="157.685" font-weight="700" font-family="'Helvetica'">Global Federated Aggregation</text><polygon points="320.356,617,330.356,621,320.356,625,324.356,621" fill="#1D3557" style="stroke:#1D3557;stroke-width:1;stroke-linejoin:miter;stroke-miterlimit:10;"/><line x1="68.651" y1="621" x2="326.356" y2="621" style="stroke:#1D3557;stroke-width:1.2;"/><text x="80.651" y="616.47" fill="#000" font-size="11" textLength="19.562" font-weight="700" font-family="'Helvetica'">[12]</text><text x="104.213" y="616.47" fill="#000" font-size="11" textLength="216.144" font-family="'Helvetica'">aggregate_fit(server_round=t, client_results)</text><line x1="342.356" y1="665" x2="384.356" y2="665" style="stroke:#1D3557;stroke-width:1.2;"/><line x1="384.356" y1="665" x2="384.356" y2="678" style="stroke:#1D3557;stroke-width:1.2;"/><line x1="343.356" y1="678" x2="384.356" y2="678" style="stroke:#1D3557;stroke-width:1.2;"/><polygon points="353.356,674,343.356,678,353.356,682,349.356,678" fill="#1D3557" style="stroke:#1D3557;stroke-width:1;stroke-linejoin:miter;stroke-miterlimit:10;"/><text x="349.356" y="650.97" fill="#000" font-size="11" textLength="19.562" font-weight="700" font-family="'Helvetica'">[13]</text><text x="372.918" y="641.47" fill="#000" font-size="11" textLength="209.129" font-family="'Helvetica'">Compute weighted parameter aggregation:</text><text x="413.936" y="657.47" fill="#000" font-size="11" font-weight="700" font-family="'Helvetica'">w</text><text x="422.492" y="659.16" fill="#000" font-size="8" textLength="11.344" font-family="'Helvetica'">t+1</text><text x="436.892" y="657.47" fill="#000" font-size="11" textLength="16.199" font-family="'Helvetica'">= Σ</text><text x="453.092" y="659.16" fill="#000" font-size="8" font-family="'Helvetica'">k</text><text x="460.148" y="657.47" fill="#000" font-size="11" textLength="14.464" font-family="'Helvetica'">(|D</text><text x="474.612" y="659.16" fill="#000" font-size="8" font-family="'Helvetica'">k</text><text x="478.612" y="657.47" fill="#000" font-size="11" textLength="35.46" font-family="'Helvetica'">| / |D|) ·</text><text x="517.128" y="657.47" fill="#000" font-size="11" font-weight="700" font-family="'Helvetica'">w</text><text x="525.684" y="659.16" fill="#000" font-size="8" textLength="11.344" font-family="'Helvetica'">t+1</text><text x="537.028" y="650.16" fill="#000" font-size="8" font-family="'Helvetica'">k</text><polygon points="79.651,702,69.651,706,79.651,710,75.651,706" fill="#1D3557" style="stroke:#1D3557;stroke-width:1;stroke-linejoin:miter;stroke-miterlimit:10;"/><line x1="73.651" y1="706" x2="331.356" y2="706" style="stroke:#1D3557;stroke-width:1.2;stroke-dasharray:2,2;"/><text x="120.98" y="699.97" fill="#000" font-size="11" textLength="19.562" font-weight="700" font-family="'Helvetica'">[14]</text><text x="144.542" y="698.47" fill="#000" font-size="11" textLength="112.53" font-family="'Helvetica'">updated global weights</text><text x="260.127" y="698.47" fill="#000" font-size="11" font-weight="700" font-family="'Helvetica'">w</text><text x="268.684" y="700.16" fill="#000" font-size="8" textLength="11.344" font-family="'Helvetica'">t+1</text><rect x="10" y="732.5" width="1147.292" height="3" fill="#EEE" style="stroke:#EEE;stroke-width:1;" rx="3" ry="3"/><line x1="10" y1="732.5" x2="1157.292" y2="732.5" style="stroke:#000;stroke-width:1;"/><line x1="10" y1="735.5" x2="1157.292" y2="735.5" style="stroke:#000;stroke-width:1;"/><rect x="485.262" y="724" width="196.768" height="19" fill="#EEE" style="stroke:#000;stroke-width:2;" rx="3" ry="3"/><text x="491.262" y="736.47" fill="#000" font-size="11" textLength="179.711" font-weight="700" font-family="'Helvetica'">Centralized / Federated Evaluation</text><polygon points="325.356,769,335.356,773,325.356,777,329.356,773" fill="#1D3557" style="stroke:#1D3557;stroke-width:1;stroke-linejoin:miter;stroke-miterlimit:10;"/><line x1="68.651" y1="773" x2="331.356" y2="773" style="stroke:#1D3557;stroke-width:1.2;"/><text x="125.787" y="766.97" fill="#000" font-size="11" textLength="19.562" font-weight="700" font-family="'Helvetica'">[15]</text><text x="149.348" y="765.47" fill="#000" font-size="11" textLength="107.309" font-family="'Helvetica'">evaluate(parameters=</text><text x="256.657" y="765.47" fill="#000" font-size="11" font-weight="700" font-family="'Helvetica'">w</text><text x="265.214" y="767.16" fill="#000" font-size="8" textLength="11.344" font-family="'Helvetica'">t+1</text><text x="276.557" y="765.47" fill="#000" font-size="11" font-family="'Helvetica'">)</text><polygon points="79.651,794,69.651,798,79.651,802,75.651,798" fill="#1D3557" style="stroke:#1D3557;stroke-width:1;stroke-linejoin:miter;stroke-miterlimit:10;"/><line x1="73.651" y1="798" x2="336.356" y2="798" style="stroke:#1D3557;stroke-width:1.2;stroke-dasharray:2,2;"/><text x="120.612" y="793.47" fill="#000" font-size="11" textLength="19.562" font-weight="700" font-family="'Helvetica'">[16]</text><text x="144.173" y="793.47" fill="#000" font-size="11" textLength="141.222" font-family="'Helvetica'">Global Test Loss &amp; Accuracy</text><line x1="68.651" y1="823" x2="110.651" y2="823" style="stroke:#1D3557;stroke-width:1.2;"/><line x1="110.651" y1="823" x2="110.651" y2="836" style="stroke:#1D3557;stroke-width:1.2;"/><line x1="69.651" y1="836" x2="110.651" y2="836" style="stroke:#1D3557;stroke-width:1.2;"/><polygon points="79.651,832,69.651,836,79.651,840,75.651,836" fill="#1D3557" style="stroke:#1D3557;stroke-width:1;stroke-linejoin:miter;stroke-miterlimit:10;"/><text x="75.651" y="818.47" fill="#000" font-size="11" textLength="19.562" font-weight="700" font-family="'Helvetica'">[17]</text><text x="99.213" y="818.47" fill="#000" font-size="11" textLength="223.169" font-family="'Helvetica'">Log convergence metrics &amp; trigger checkpoint</text><?plantuml-src ZLPTZjis47xNAGOkKDYeruutsQPPh1Vm-YVzMRT5l41JD8L0IsEPiKog9ENr9flttAE7w7iFq4Fq91sHj2oxgbC_s1BvpJSptmo7rYikCgRO6jPIo6Yfv1fXmLADWIwtz9B5yfwBv5yxIkOYZgGIgE3BodgC2vQdPYA5-PuHO-DhJ3TeUCGQzQWPVuVGwrMTucyvYWYdg3LBS93oH424mg0AAZ3w9bgUCM7WVG3qkM7HAh613MKg5Nms-MhoOZ9mUrB5gFpw-StvwDbvPVrkoQEL87_Gwvm77uAQQBoFWLBotjFqHaylBfxlbmzPYkLRli1RBl30-xEBvpSlHeVxnv6FRoRdFlANj9xL4L2OB3TIvEiv5Q5nDR_-vScJNw-wy-j645JLQKnIUK-G6QeDga6MlH7DeIH6BfWXmYwC5AUTLWEOzgX3Wa6IA4miU6OKCvWy4CS4uy4c8NDwcEPIkASVbTnw9Wyzv1gcd6evPO9gguXbXYb6XfFvM2IaXRCTJkkiA7POaSquJX1-acgr2zfj7vhSoeYbyEtWTNUIigrd9-C1YHRpnG8-XnyomtomX0k2VXzU5LK00zy8RZXB-JjcO-lt0oSCd5sNYS4bH58iU98h31VSDBM5XBQIVTC6sq98ZQlxL9xxeZPNEfzVcwjkyTCAIYPY7Kw9JxDrbc8OsNnqSw6OrQPWRyEQYv1j64_PV8zf1MHuTXYLjffY31u3iwfRwCDx9vXTxRdLDdGwdJPKDhvp6nygKHPkd0oN7WbSQADo6wKcIPDKpadsVUPGbxcL-aP95aTC6p9pnVAKTufnKKmTKZsLCeC9DHwoQ7cS6ApWxuyV3xEpXsPVAqzv2KLzFb6FjYzdot8Kocyexrrp5MkUZNYfNuWqfoaHhS8zRsXac3qOXTYihxYbiKcvbCSP3Lz0gadFLs1i8ILiIbASpPaXLFErvPhlelsv-jgYIf15vCGttBRjo29M5MLsd-DCKgbr6nB5Oasnl6NRpbiIh7WF5wBbb2F0oGXEEiYpcCGa2fcPK9j2s7xnpBOXVVCrtGEguq3MRHLvcjd5jcFhi2nB7qBlhWpSl--PKCJ1xhUsjhWrnUaBKsIRagXLx3kLxv4dItFStr_uuqHlcHC-kpwWhnwX2JUlTjHrRLb7rWQQ-25kxQ3G_SU34Z_Ia42ZUEGJZV6uYsswTFXUkdDA0nkBmnt3RiQVcdRCO-gddJkJeK9DTpi5KBekBuBgkAlG3kKwomdd5ALOIa5AZnJLvHjHhmvL_g_Vgof0yqWLkfaUHuyj-FEF_rEj-d7d6YZU3RZJrGygmfVP5x8FII5LN2l4rAseFzwmD3yjFZe8VhfTMl-HWg_v7TB8lQNpJdDt44KvTVb3rUKEVYkJOY3IIsB_0VdE8YlwJUZsXcY9qIgJdFhg7m00?></g></svg>
