<svg xmlns="http://www.w3.org/2000/svg" xmlns:xlink="http://www.w3.org/1999/xlink" version="1.1" data-diagram-type="DESCRIPTION" style="width:809px;height:691px;background:#FFFFFF;" width="809px" height="691px" viewBox="0 0 809 691" zoomAndPan="magnify" preserveAspectRatio="none" contentStyleType="text/css"><?plantuml 1.2026.8?><defs/><g font-family="sans-serif" lengthAdjust="spacing"><!--cluster Storage--><g class="cluster" data-qualified-name="Storage" id="ent0002" data-source-line="22"><path d="M8,191.998 L163.447,191.998 A3,3 0 0 1 165.447,193.998 L172.447,208.998 L733,208.998 A2,2 0 0 1 735,210.998 L735,359.998 A2,2 0 0 1 733,361.998 L8,361.998 A2,2 0 0 1 6,359.998 L6,193.998 A2,2 0 0 1 8,191.998" style="stroke:#000;stroke-width:1.5;" fill="none"/><line x1="6" y1="208.998" x2="172.447" y2="208.998" style="stroke:#000;stroke-width:1.5;"/><text x="10" y="202.468" fill="#000" font-size="11" textLength="153.447" font-weight="700" font-family="'Helvetica'">Local Data Storage Hierarchy</text></g><!--cluster ProcessedDir--><g class="cluster" data-qualified-name="Storage.ProcessedDir" id="ent0004" data-source-line="25"><path d="M32,229.998 L223.481,229.998 A3,3 0 0 1 225.481,231.998 L232.481,257.998 L566,257.998 A2,2 0 0 1 568,259.998 L568,335.998 A2,2 0 0 1 566,337.998 L32,337.998 A2,2 0 0 1 30,335.998 L30,231.998 A2,2 0 0 1 32,229.998" style="stroke:#000;stroke-width:1.5;" fill="none"/><line x1="30" y1="257.998" x2="232.481" y2="257.998" style="stroke:#000;stroke-width:1.5;"/><text x="59.652" y="240.468" fill="#000" font-size="11" textLength="138.177" font-weight="700" font-family="'Helvetica'">data/processed/&lt;dataset>/</text><text x="34" y="251.468" fill="#000" font-size="11" textLength="189.481" font-weight="700" font-family="'Helvetica'">(High-Performance Apache Parquet)</text></g><!--cluster PartScheme--><g class="cluster" data-qualified-name="PartScheme" id="ent0010" data-source-line="36"><path d="M321,468.498 L491.099,468.498 A3,3 0 0 1 493.099,470.498 L500.099,485.498 L789,485.498 A2,2 0 0 1 791,487.498 L791,564.498 A2,2 0 0 1 789,566.498 L321,566.498 A2,2 0 0 1 319,564.498 L319,470.498 A2,2 0 0 1 321,468.498" style="stroke:#000;stroke-width:1.5;" fill="none"/><line x1="319" y1="485.498" x2="500.099" y2="485.498" style="stroke:#000;stroke-width:1.5;"/><text x="323" y="478.968" fill="#000" font-size="11" textLength="168.099" font-weight="700" font-family="'Helvetica'">Federated Partitioning Schemes</text></g><!--cluster Clients--><g class="cluster" data-qualified-name="Clients" id="ent0013" data-source-line="41"><path d="M247,590.498 L396.925,590.498 A3,3 0 0 1 398.925,592.498 L405.925,607.498 L768,607.498 A2,2 0 0 1 770,609.498 L770,674.498 A2,2 0 0 1 768,676.498 L247,676.498 A2,2 0 0 1 245,674.498 L245,592.498 A2,2 0 0 1 247,590.498" style="stroke:#000;stroke-width:1.5;" fill="none"/><line x1="245" y1="607.498" x2="405.925" y2="607.498" style="stroke:#000;stroke-width:1.5;"/><text x="249" y="600.968" fill="#000" font-size="11" textLength="147.925" font-weight="700" font-family="'Helvetica'">Simulated Federated Clients</text></g><!--entity RawCache--><g class="entity" data-qualified-name="Storage.RawCache" id="ent0003" data-source-line="23"><path d="M588.96,266.498 L630.96,266.498 A3,3 0 0 1 632.96,268.498 L639.96,287.498 L717.038,287.498 A2,2 0 0 1 719.038,289.498 L719.038,324.498 A2,2 0 0 1 717.038,326.498 L588.96,326.498 A2,2 0 0 1 586.96,324.498 L586.96,268.498 A2,2 0 0 1 588.96,266.498" style="stroke:#181818;stroke-width:0.5;" fill="#F1F1F1"/><line x1="586.96" y1="287.498" x2="639.96" y2="287.498" style="stroke:#181818;stroke-width:0.5;"/><text x="596.96" y="302.968" fill="#000" font-size="11" textLength="97.233" font-family="'Helvetica'">data/raw/&lt;dataset>/</text><text x="596.96" y="313.968" fill="#000" font-size="11" textLength="102.078" font-family="'Helvetica'">(Arrow / Raw Cache)</text></g><!--entity TrainParquet--><g class="entity" data-qualified-name="Storage.ProcessedDir.TrainParquet" id="ent0005" data-source-line="26"><path d="M415.91,280.998 C415.91,270.998 483.996,270.998 483.996,270.998 C483.996,270.998 552.081,270.998 552.081,280.998 L552.081,311.998 C552.081,321.998 483.996,321.998 483.996,321.998 C483.996,321.998 415.91,321.998 415.91,311.998 L415.91,280.998" style="stroke:#2B2D42;stroke-width:1.2;" fill="#EDF2F4"/><path d="M415.91,280.998 C415.91,290.998 483.996,290.998 483.996,290.998 C483.996,290.998 552.081,290.998 552.081,280.998" style="stroke:#2B2D42;stroke-width:1.2;" fill="none"/><text x="425.91" y="303.468" fill="#000" font-size="11" textLength="61.762" font-family="'Helvetica'">train.parquet</text><text x="425.91" y="314.468" fill="#000" font-size="11" textLength="116.171" font-family="'Helvetica'">(45,000 samples / 90%)</text></g><!--entity ValParquet--><g class="entity" data-qualified-name="Storage.ProcessedDir.ValParquet" id="ent0006" data-source-line="27"><path d="M250.97,280.998 C250.97,270.998 315.997,270.998 315.997,270.998 C315.997,270.998 381.024,270.998 381.024,280.998 L381.024,311.998 C381.024,321.998 315.997,321.998 315.997,321.998 C315.997,321.998 250.97,321.998 250.97,311.998 L250.97,280.998" style="stroke:#2B2D42;stroke-width:1.2;" fill="#EDF2F4"/><path d="M250.97,280.998 C250.97,290.998 315.997,290.998 315.997,290.998 C315.997,290.998 381.024,290.998 381.024,280.998" style="stroke:#2B2D42;stroke-width:1.2;" fill="none"/><text x="260.97" y="303.468" fill="#000" font-size="11" textLength="54.425" font-family="'Helvetica'">val.parquet</text><text x="260.97" y="314.468" fill="#000" font-size="11" textLength="110.054" font-family="'Helvetica'">(5,000 samples / 10%)</text></g><!--entity TestParquet--><g class="entity" data-qualified-name="Storage.ProcessedDir.TestParquet" id="ent0007" data-source-line="28"><path d="M45.8,280.998 C45.8,270.998 131.001,270.998 131.001,270.998 C131.001,270.998 216.201,270.998 216.201,280.998 L216.201,311.998 C216.201,321.998 131.001,321.998 131.001,321.998 C131.001,321.998 45.8,321.998 45.8,311.998 L45.8,280.998" style="stroke:#2B2D42;stroke-width:1.2;" fill="#EDF2F4"/><path d="M45.8,280.998 C45.8,290.998 131.001,290.998 131.001,290.998 C131.001,290.998 216.201,290.998 216.201,280.998" style="stroke:#2B2D42;stroke-width:1.2;" fill="none"/><text x="55.8" y="303.468" fill="#000" font-size="11" textLength="58.094" font-family="'Helvetica'">test.parquet</text><text x="55.8" y="314.468" fill="#000" font-size="11" textLength="150.401" font-family="'Helvetica'">(10,000 samples / Global Test)</text></g><!--entity IID--><g class="entity" data-qualified-name="PartScheme.IID" id="ent0011" data-source-line="37"><rect x="334.73" y="498.498" width="188.543" height="52" fill="#F8F9FA" style="stroke:#1D3557;stroke-width:1.2;" rx="2" ry="2"/><rect x="503.273" y="503.498" width="15" height="10" fill="#F8F9FA" style="stroke:#1D3557;stroke-width:1.2;"/><rect x="501.273" y="505.498" width="4" height="2" fill="#F8F9FA" style="stroke:#1D3557;stroke-width:1.2;"/><rect x="501.273" y="509.498" width="4" height="2" fill="#F8F9FA" style="stroke:#1D3557;stroke-width:1.2;"/><text x="349.73" y="526.968" fill="#000" font-size="11" textLength="61.751" font-family="'Helvetica'">IidPartitioner</text><text x="349.73" y="537.968" fill="#000" font-size="11" textLength="148.543" font-family="'Helvetica'">(Uniform Random Distribution)</text></g><!--entity NonIID--><g class="entity" data-qualified-name="PartScheme.NonIID" id="ent0012" data-source-line="38"><rect x="558.66" y="498.498" width="216.682" height="52" fill="#F8F9FA" style="stroke:#1D3557;stroke-width:1.2;" rx="2" ry="2"/><rect x="755.342" y="503.498" width="15" height="10" fill="#F8F9FA" style="stroke:#1D3557;stroke-width:1.2;"/><rect x="753.342" y="505.498" width="4" height="2" fill="#F8F9FA" style="stroke:#1D3557;stroke-width:1.2;"/><rect x="753.342" y="509.498" width="4" height="2" fill="#F8F9FA" style="stroke:#1D3557;stroke-width:1.2;"/><text x="573.66" y="526.968" fill="#000" font-size="11" textLength="89.864" font-family="'Helvetica'">DirichletPartitioner</text><text x="573.66" y="537.968" fill="#000" font-size="11" textLength="176.682" font-family="'Helvetica'">(Heterogeneous Label Skew: Dir(α))</text></g><!--entity C0--><g class="entity" data-qualified-name="Clients.C0" id="ent0014" data-source-line="42"><path d="M456.37,630.498 C456.37,620.498 522.004,620.498 522.004,620.498 C522.004,620.498 587.638,620.498 587.638,630.498 L587.638,650.498 C587.638,660.498 522.004,660.498 522.004,660.498 C522.004,660.498 456.37,660.498 456.37,650.498 L456.37,630.498" style="stroke:#2B2D42;stroke-width:1.2;" fill="#EDF2F4"/><path d="M456.37,630.498 C456.37,640.498 522.004,640.498 522.004,640.498 C522.004,640.498 587.638,640.498 587.638,630.498" style="stroke:#2B2D42;stroke-width:1.2;" fill="none"/><text x="466.37" y="652.968" fill="#000" font-size="11" textLength="111.268" font-family="'Helvetica'">Client 0 Partition (D_0)</text></g><!--entity C1--><g class="entity" data-qualified-name="Clients.C1" id="ent0015" data-source-line="43"><path d="M622.37,630.498 C622.37,620.498 688.004,620.498 688.004,620.498 C688.004,620.498 753.638,620.498 753.638,630.498 L753.638,650.498 C753.638,660.498 688.004,660.498 688.004,660.498 C688.004,660.498 622.37,660.498 622.37,650.498 L622.37,630.498" style="stroke:#2B2D42;stroke-width:1.2;" fill="#EDF2F4"/><path d="M622.37,630.498 C622.37,640.498 688.004,640.498 688.004,640.498 C688.004,640.498 753.638,640.498 753.638,630.498" style="stroke:#2B2D42;stroke-width:1.2;" fill="none"/><text x="632.37" y="652.968" fill="#000" font-size="11" textLength="111.268" font-family="'Helvetica'">Client 1 Partition (D_1)</text></g><!--entity CK--><g class="entity" data-qualified-name="Clients.CK" id="ent0016" data-source-line="44"><path d="M260.69,630.498 C260.69,620.498 340.998,620.498 340.998,620.498 C340.998,620.498 421.305,620.498 421.305,630.498 L421.305,650.498 C421.305,660.498 340.998,660.498 340.998,660.498 C340.998,660.498 260.69,660.498 260.69,650.498 L260.69,630.498" style="stroke:#2B2D42;stroke-width:1.2;" fill="#EDF2F4"/><path d="M260.69,630.498 C260.69,640.498 340.998,640.498 340.998,640.498 C340.998,640.498 421.305,640.498 421.305,630.498" style="stroke:#2B2D42;stroke-width:1.2;" fill="none"/><text x="270.69" y="652.968" fill="#000" font-size="11" textLength="140.615" font-family="'Helvetica'">Client K-1 Partition (D_{K-1})</text></g><!--entity HFHub--><g class="entity" data-qualified-name="HFHub" id="ent0001" data-source-line="20"><path d="M305.049,22.11 C308.961,15.991 313.114,14.905 318.233,20.784 C322.161,13.105 329.4,13.04 334.126,19.912 C336.275,14.066 342.07,13.568 345.683,18.314 C349.527,9.512 355.627,10.197 361.226,16.51 C364.521,9.833 369.64,9.338 373.736,15.744 C377.105,8.964 382.624,6.876 388.021,13.598 C391.988,6.989 397.388,6 402.397,12.451 C407.329,6.781 412.117,7.527 415.583,14.037 C419.847,8.683 424.806,8.61 428.153,15.017 C433.675,9.914 439.181,10.636 442.491,17.636 C446.972,11.487 451.853,10.326 456.757,17.172 C461.35,12.094 467.13,10.779 470.344,18.622 C474.043,12.69 479.612,13.411 482.849,19.118 C488.461,11.238 493.896,11.776 498.051,20.455 C509.551,21.443 511.591,29.923 505.862,38.407 C512.52,48.022 507.653,57.401 495.919,57.375 C493.465,62.509 488.423,64.273 484.447,59.064 C480.437,66.772 475.281,66.692 469.944,60.443 C465.962,67.233 459.403,66.407 455.583,60.263 C450.689,65.889 446.258,66.547 441.52,60.082 C438.872,67.854 433.309,69.65 427.668,62.947 C423.304,69.753 417.847,69.616 413.887,62.547 C410.58,69.216 404.381,70.015 400.629,62.979 C396.673,69.371 392.693,68.32 388.676,63.041 C384.227,69.496 376.708,68.747 373.569,61.587 C368.982,67.614 363.428,67.042 360.204,60.175 C357.275,66.94 351.127,66.754 347.617,60.748 C342.204,66.294 337.287,65.651 333.754,58.667 C328.498,66.162 323.123,65.646 318.688,57.858 C315.595,64.159 310.417,64.185 306.919,58.246 C296.368,55.385 293.565,47.986 300.467,39.209 C293.047,31.75 294.465,24.745 305.049,22.11" style="stroke:#181818;stroke-width:0.5;" fill="#F1F1F1"/><text x="311.34" y="35.468" fill="#000" font-size="11" textLength="177.316" font-family="'Helvetica'">Hugging Face Hub / Remote Source</text><text x="311.34" y="46.468" fill="#000" font-size="11" textLength="168.115" font-family="'Helvetica'">(e.g., uoft-cs/cifar10, ylecun/mnist)</text></g><!--entity PrepEngine--><g class="entity" data-qualified-name="PrepEngine" id="ent0008" data-source-line="32"><rect x="298.06" y="123.998" width="203.883" height="52" fill="#F8F9FA" style="stroke:#1D3557;stroke-width:1.2;" rx="2" ry="2"/><rect x="481.943" y="128.998" width="15" height="10" fill="#F8F9FA" style="stroke:#1D3557;stroke-width:1.2;"/><rect x="479.943" y="130.998" width="4" height="2" fill="#F8F9FA" style="stroke:#1D3557;stroke-width:1.2;"/><rect x="479.943" y="134.998" width="4" height="2" fill="#F8F9FA" style="stroke:#1D3557;stroke-width:1.2;"/><text x="313.06" y="152.468" fill="#000" font-size="11" textLength="107.621" font-family="'Helvetica'">Preprocessing Engine</text><text x="313.06" y="163.468" fill="#000" font-size="11" textLength="163.883" font-family="'Helvetica'">(utils.prepare_and_save_dataset)</text></g><!--entity FlowerFDS--><g class="entity" data-qualified-name="FlowerFDS" id="ent0009" data-source-line="34"><rect x="358.21" y="386.498" width="251.578" height="52" fill="#F8F9FA" style="stroke:#1D3557;stroke-width:1.2;" rx="2" ry="2"/><rect x="589.788" y="391.498" width="15" height="10" fill="#F8F9FA" style="stroke:#1D3557;stroke-width:1.2;"/><rect x="587.788" y="393.498" width="4" height="2" fill="#F8F9FA" style="stroke:#1D3557;stroke-width:1.2;"/><rect x="587.788" y="397.498" width="4" height="2" fill="#F8F9FA" style="stroke:#1D3557;stroke-width:1.2;"/><text x="373.21" y="414.968" fill="#000" font-size="11" textLength="124.115" font-family="'Helvetica'">Flower FederatedDataset</text><text x="373.21" y="425.968" fill="#000" font-size="11" textLength="211.578" font-family="'Helvetica'">(utils.get_federated_dataset_from_parquet)</text></g><!--entity CentralEval--><g class="entity" data-qualified-name="CentralEval" id="ent0017" data-source-line="47"><rect x="109.29" y="391.998" width="157.412" height="41" fill="#F8F9FA" style="stroke:#1D3557;stroke-width:1.2;" rx="2" ry="2"/><rect x="246.702" y="396.998" width="15" height="10" fill="#F8F9FA" style="stroke:#1D3557;stroke-width:1.2;"/><rect x="244.702" y="398.998" width="4" height="2" fill="#F8F9FA" style="stroke:#1D3557;stroke-width:1.2;"/><rect x="244.702" y="402.998" width="4" height="2" fill="#F8F9FA" style="stroke:#1D3557;stroke-width:1.2;"/><text x="124.29" y="420.468" fill="#000" font-size="11" textLength="117.412" font-family="'Helvetica'">Central Evaluation Loop</text></g><!--link HFHub to PrepEngine--><g class="link" data-entity-1="ent0001" data-entity-2="ent0008" id="lnk18" data-source-line="50" data-link-type="dependency"><path d="M400,64.258 C400,82.098 400,100.628 400,118.518" style="stroke:#181818;stroke-width:1;" fill="none" id="HFHub-to-PrepEngine"/><polygon points="400,123.518,404,114.518,400,118.518,396,114.518,400,123.518" fill="#181818" style="stroke:#181818;stroke-width:1;stroke-linejoin:miter;stroke-miterlimit:10;"/><text x="285" y="90.358" fill="#000" font-size="11" textLength="114.947" font-family="'Helvetica'">Download Raw Dataset</text></g><!--link PrepEngine to RawCache--><g class="link" data-entity-1="ent0008" data-entity-2="ent0003" id="lnk19" data-source-line="51" data-link-type="dependency"><path d="M502.18,150.498 C572.39,150.498 653,150.498 653,150.498 C653,150.498 653,239.478 653,282.248" style="stroke:#181818;stroke-width:1;" fill="none" id="PrepEngine-to-RawCache"/><polygon points="653,287.248,657,278.248,653,282.248,649,278.248,653,287.248" fill="#181818" style="stroke:#181818;stroke-width:1;stroke-linejoin:miter;stroke-miterlimit:10;"/><text x="525.46" y="146.968" fill="#000" font-size="11" textLength="109.431" font-family="'Helvetica'">Save Raw Disk Cache</text></g><!--link PrepEngine to TrainParquet--><g class="link" data-entity-1="ent0008" data-entity-2="ent0005" id="lnk20" data-source-line="52" data-link-type="dependency"><path d="M458.93,176.188 C458.93,202.858 458.93,238.948 458.93,265.538" style="stroke:#181818;stroke-width:1;" fill="none" id="PrepEngine-to-TrainParquet"/><polygon points="458.93,270.538,462.93,261.538,458.93,265.538,454.93,261.538,458.93,270.538" fill="#181818" style="stroke:#181818;stroke-width:1;stroke-linejoin:miter;stroke-miterlimit:10;"/><text x="384.93" y="219.828" fill="#000" font-size="11" textLength="73.375" font-family="'Helvetica'">Export Parquet</text></g><!--link PrepEngine to ValParquet--><g class="link" data-entity-1="ent0008" data-entity-2="ent0006" id="lnk21" data-source-line="53" data-link-type="dependency"><path d="M339.54,176.188 C339.54,202.858 339.54,238.948 339.54,265.538" style="stroke:#181818;stroke-width:1;" fill="none" id="PrepEngine-to-ValParquet"/><polygon points="339.54,270.538,343.54,261.538,339.54,265.538,335.54,261.538,339.54,270.538" fill="#181818" style="stroke:#181818;stroke-width:1;stroke-linejoin:miter;stroke-miterlimit:10;"/><text x="265.54" y="219.828" fill="#000" font-size="11" textLength="73.375" font-family="'Helvetica'">Export Parquet</text></g><!--link PrepEngine to TestParquet--><g class="link" data-entity-1="ent0008" data-entity-2="ent0007" id="lnk22" data-source-line="54" data-link-type="dependency"><path d="M297.92,150.498 C221.82,150.498 131,150.498 131,150.498 C131,150.498 131,223.818 131,265.728" style="stroke:#181818;stroke-width:1;" fill="none" id="PrepEngine-to-TestParquet"/><polygon points="131,270.728,135,261.728,131,265.728,127,261.728,131,270.728" fill="#181818" style="stroke:#181818;stroke-width:1;stroke-linejoin:miter;stroke-miterlimit:10;"/><text x="80.34" y="146.968" fill="#000" font-size="11" textLength="73.375" font-family="'Helvetica'">Export Parquet</text></g><!--link TrainParquet to FlowerFDS--><g class="link" data-entity-1="ent0005" data-entity-2="ent0009" id="lnk23" data-source-line="56" data-link-type="dependency"><path d="M484,322.238 C484,341.198 484,361.898 484,381.018" style="stroke:#181818;stroke-width:1;" fill="none" id="TrainParquet-to-FlowerFDS"/><polygon points="484,386.018,488,377.018,484,381.018,480,377.018,484,386.018" fill="#181818" style="stroke:#181818;stroke-width:1;stroke-linejoin:miter;stroke-miterlimit:10;"/><text x="383" y="350.598" fill="#000" font-size="11" textLength="100.901" font-family="'Helvetica'">Ingest Local Parquet</text></g><!--link FlowerFDS to IID--><g class="link" data-entity-1="ent0009" data-entity-2="ent0011" id="lnk24" data-source-line="57" data-link-type="dependency"><path d="M440.74,438.758 C440.74,456.598 440.74,475.128 440.74,493.018" style="stroke:#181818;stroke-width:1;" fill="none" id="FlowerFDS-to-IID"/><polygon points="440.74,498.018,444.74,489.018,440.74,493.018,436.74,489.018,440.74,498.018" fill="#181818" style="stroke:#181818;stroke-width:1;stroke-linejoin:miter;stroke-miterlimit:10;"/><text x="358.74" y="464.858" fill="#000" font-size="11" textLength="81.318" font-family="'Helvetica'">Partition Mode A</text></g><!--link FlowerFDS to NonIID--><g class="link" data-entity-1="ent0009" data-entity-2="ent0012" id="lnk25" data-source-line="58" data-link-type="dependency"><path d="M584.22,438.758 C584.22,456.598 584.22,475.128 584.22,493.018" style="stroke:#181818;stroke-width:1;" fill="none" id="FlowerFDS-to-NonIID"/><polygon points="584.22,498.018,588.22,489.018,584.22,493.018,580.22,489.018,584.22,498.018" fill="#181818" style="stroke:#181818;stroke-width:1;stroke-linejoin:miter;stroke-miterlimit:10;"/><text x="502.22" y="464.858" fill="#000" font-size="11" textLength="81.318" font-family="'Helvetica'">Partition Mode B</text></g><!--link IID to C0--><g class="link" data-entity-1="ent0011" data-entity-2="ent0014" id="lnk26" data-source-line="60" data-link-type="dependency"><path d="M478.67,550.818 C478.67,571.808 478.67,595.788 478.67,615.058" style="stroke:#181818;stroke-width:1;" fill="none" id="IID-to-C0"/><polygon points="478.67,620.058,482.67,611.058,478.67,615.058,474.67,611.058,478.67,620.058" fill="#181818" style="stroke:#181818;stroke-width:1;stroke-linejoin:miter;stroke-miterlimit:10;"/><text x="479.67" y="581.908" fill="#000" font-size="11" textLength="81.915" font-family="'Helvetica'">Uniform Partition</text></g><!--link IID to C1--><g class="link" data-entity-1="ent0011" data-entity-2="ent0015" id="lnk27" data-source-line="61" data-link-type="dependency"><path d="M500.97,550.848 C500.97,571.758 500.97,597.498 500.97,597.498 C500.97,597.498 666.12,597.498 666.12,597.498 C666.12,597.498 666.12,603.928 666.12,615.008" style="stroke:#181818;stroke-width:1;" fill="none" id="IID-to-C1"/><polygon points="666.12,620.008,670.12,611.008,666.12,615.008,662.12,611.008,666.12,620.008" fill="#181818" style="stroke:#181818;stroke-width:1;stroke-linejoin:miter;stroke-miterlimit:10;"/><text x="572.48" y="593.968" fill="#000" font-size="11" textLength="81.915" font-family="'Helvetica'">Uniform Partition</text></g><!--link IID to CK--><g class="link" data-entity-1="ent0011" data-entity-2="ent0016" id="lnk28" data-source-line="62" data-link-type="dependency"><path d="M363.59,550.818 C363.59,571.808 363.59,595.788 363.59,615.058" style="stroke:#181818;stroke-width:1;" fill="none" id="IID-to-CK"/><polygon points="363.59,620.058,367.59,611.058,363.59,615.058,359.59,611.058,363.59,620.058" fill="#181818" style="stroke:#181818;stroke-width:1;stroke-linejoin:miter;stroke-miterlimit:10;"/><text x="281.59" y="581.908" fill="#000" font-size="11" textLength="81.915" font-family="'Helvetica'">Uniform Partition</text></g><!--link NonIID to C0--><g class="link" data-entity-1="ent0012" data-entity-2="ent0014" id="lnk29" data-source-line="64" data-link-type="dependency"><path d="M577.98,550.818 C577.98,571.808 577.98,595.788 577.98,615.058" style="stroke:#181818;stroke-width:1;" fill="none" id="NonIID-to-C0"/><polygon points="577.98,620.058,581.98,611.058,577.98,615.058,573.98,611.058,577.98,620.058" fill="#181818" style="stroke:#181818;stroke-width:1;stroke-linejoin:miter;stroke-miterlimit:10;"/><text x="578.98" y="581.908" fill="#000" font-size="11" textLength="82.543" font-family="'Helvetica'">Skewed Partition</text></g><!--link NonIID to C1--><g class="link" data-entity-1="ent0012" data-entity-2="ent0015" id="lnk30" data-source-line="65" data-link-type="dependency"><path d="M709.88,550.818 C709.88,571.808 709.88,595.788 709.88,615.058" style="stroke:#181818;stroke-width:1;" fill="none" id="NonIID-to-C1"/><polygon points="709.88,620.058,713.88,611.058,709.88,615.058,705.88,611.058,709.88,620.058" fill="#181818" style="stroke:#181818;stroke-width:1;stroke-linejoin:miter;stroke-miterlimit:10;"/><text x="710.88" y="581.908" fill="#000" font-size="11" textLength="82.543" font-family="'Helvetica'">Skewed Partition</text></g><!--link NonIID to CK--><g class="link" data-entity-1="ent0012" data-entity-2="ent0016" id="lnk31" data-source-line="66" data-link-type="dependency"><path d="M568.32,550.718 C568.32,562.368 568.32,573.498 568.32,573.498 C568.32,573.498 392.45,573.498 392.45,573.498 C392.45,573.498 392.45,595.328 392.45,615.028" style="stroke:#181818;stroke-width:1;" fill="none" id="NonIID-to-CK"/><polygon points="392.45,620.028,396.45,611.028,392.45,615.028,388.45,611.028,392.45,620.028" fill="#181818" style="stroke:#181818;stroke-width:1;stroke-linejoin:miter;stroke-miterlimit:10;"/><text x="385.51" y="569.968" fill="#000" font-size="11" textLength="82.543" font-family="'Helvetica'">Skewed Partition</text></g><!--link ValParquet to CentralEval--><g class="link" data-entity-1="ent0006" data-entity-2="ent0017" id="lnk32" data-source-line="68" data-link-type="dependency"><path d="M258.84,322.238 C258.84,343.198 258.84,367.398 258.84,386.848" style="stroke:#181818;stroke-width:1;" fill="none" id="ValParquet-to-CentralEval"/><polygon points="258.84,391.848,262.84,382.848,258.84,386.848,254.84,382.848,258.84,391.848" fill="#181818" style="stroke:#181818;stroke-width:1;stroke-linejoin:miter;stroke-miterlimit:10;"/><text x="172.84" y="353.518" fill="#000" font-size="11" textLength="85.003" font-family="'Helvetica'">Validation Tuning</text></g><!--link TestParquet to CentralEval--><g class="link" data-entity-1="ent0007" data-entity-2="ent0017" id="lnk33" data-source-line="69" data-link-type="dependency"><path d="M162.75,322.238 C162.75,343.198 162.75,367.398 162.75,386.848" style="stroke:#181818;stroke-width:1;" fill="none" id="TestParquet-to-CentralEval"/><polygon points="162.75,391.848,166.75,382.848,162.75,386.848,158.75,382.848,162.75,391.848" fill="#181818" style="stroke:#181818;stroke-width:1;stroke-linejoin:miter;stroke-miterlimit:10;"/><text x="31.75" y="353.518" fill="#000" font-size="11" textLength="130.824" font-family="'Helvetica'">Final Benchmark Accuracy</text></g><?plantuml-src ZLNRRkCs47tNLn0kYcQ1s9RS1EqMnGA97TL1qaLGftqgOD3KM29CaIf9nKqN-QZ-IB-fGr6IQLlRhXziYNFcpErmR7PSLbJJafHAAbPeLGBPKc4WCht953HJUoxpCujMjSoOqX8qkGhECzZIMjXKIVkH8kDe2U85B6TqD8nQyR-094bW55o2VQs0A6qB5GKMfifAIP2MV8e8Vcufs-LD9dCbb2PVfT-dxzCRRrCw0zsU9ujlhw-_2ywV2yvs4emXoMGMlOL1CchfXXhuN8oxHJfBhyvZp6vdYwlPVyLWGjKPTgJESzVIb38Wotf3fkGNA9K5ibArPl2xl819FhaajThQCJDJnhTK9_4bUHN0QZaj9JVstOXGGvOf4aHHXKdI7Blzg1WLP84ba9LLsfqjEMYgMV7QE7IdlhYj4fWe6RcQfvhkfp-w9mFsmnIpkD5QxLrsT4_cb1NWO-9hynOr57teXgFIYc75a1qpBNbUZ9z0RvKkgSIoRoh7G9we_gE6jfQdpdV1TPkV-_Jp65bDkPnKtWTPhwulupWcXfQL08E9le-_zbJF3jcI3n2zK17GdB8a7SjlL7oUmuAn0GcEvvZb9w4sE8fdw4RbdaAwjqOIlQ97JnhQxZbnt4dKY9D2RRamamgDLCEQocnjw0kis-vsdOFAEnmnfaBjSRefu8ofnRvwdvuq1xlUTiQESRt5JR2kmi5uddIn2eJMaxePMcwvaYxj5Kwr1EEpGeD_RwSPf7RFizuFD6Rqg-HE72WkcQcIB53XcczgP_T9tDylJabG9vmL0kmnrH8iQ9M315KRyaWt8CXg1_iVa5LV_FFtEq_uKKd7-HOKjU9bBPgY3kND1STWlgBskItde0L_Jk93ByZ5OXtxEFDu69qSevCMdGoZ7yOd-4zuyjRwF9n8QOxV6iLtXqAlQUFng5JbmTxcJ57qZLyLRi3OM2c1ER29chL2nhZxvVX382-2FSGpeMZMR8LMKL60w9owBO4kAnIiXtEpyvjao2EyjEXrzsU5Vm3TYXXoEDpFBu875_0S7nr5xrnwvQF3lSoHWFWDsxaT06E4evuGU1ZJpoh3LNS2yhexnzr6aJllGizZX7IteeSUGvB_XpmCGg8sYQDWxew4z_aCb7m9w64850MZwf478Q8B0dZcfVfSkrKIXUCQzacvnDzRaAmegTwH6yPgJTbhz2y0?></g></svg>
