<svg xmlns="http://www.w3.org/2000/svg" xmlns:xlink="http://www.w3.org/1999/xlink" version="1.1" data-diagram-type="DESCRIPTION" style="width:1291px;height:442px;background:#FFFFFF;" width="1291px" height="442px" viewBox="0 0 1291 442" zoomAndPan="magnify" preserveAspectRatio="none" contentStyleType="text/css"><?plantuml 1.2026.8?><defs/><g font-family="sans-serif" lengthAdjust="spacing"><!--cluster Server--><g class="cluster" data-qualified-name="Server" id="ent0001" data-source-line="46"><path d="M276,6 L581.406,6 A6,6 0 0 1 585.406,10 L592.406,24 L1223,24 A4,4 0 0 1 1227,28 L1227,112 A4,4 0 0 1 1223,116 L276,116 A4,4 0 0 1 272,112 L272,10 A4,4 0 0 1 276,6" style="stroke:#1E293B;stroke-width:1.5;" fill="#FFF"/><line x1="272" y1="24" x2="592.406" y2="24" style="stroke:#1E293B;stroke-width:1.5;"/><text x="276" y="17.24" fill="#000" font-size="12" textLength="307.406" font-weight="700" font-family="'Helvetica'">Tier 1: Central Server Coordinator (Flower ServerApp)</text></g><!--cluster Client--><g class="cluster" data-qualified-name="Client" id="ent0008" data-source-line="63"><path d="M10,299 L355.637,299 A6,6 0 0 1 359.637,303 L366.637,317 L1167,317 A4,4 0 0 1 1171,321 L1171,423 A4,4 0 0 1 1167,427 L10,427 A4,4 0 0 1 6,423 L6,303 A4,4 0 0 1 10,299" style="stroke:#1E293B;stroke-width:1.5;" fill="#FFF"/><line x1="6" y1="317" x2="366.637" y2="317" style="stroke:#1E293B;stroke-width:1.5;"/><text x="10" y="310.24" fill="#000" font-size="12" textLength="347.637" font-weight="700" font-family="'Helvetica'">Tier 3: Federated Edge Client k ∈ {1, ..., K} (Flower ClientApp)</text></g><!--entity S_Model--><g class="entity" data-qualified-name="Server.S_Model" id="ent0002" data-source-line="47"><rect x="296.14" y="47.5" width="197.72" height="42" fill="#F8FAFC" style="stroke:#475569;stroke-width:1.2;" rx="4" ry="4"/><text x="306.14" y="58.97" fill="#000" font-size="11" textLength="116.128" font-weight="700" font-family="'Helvetica'">Global Model Registry</text><ellipse cx="311.64" cy="65" rx="2.5" ry="2.5" fill="#000"/><text x="318.14" y="69.97" fill="#000" font-size="11" textLength="107.61" font-family="'Helvetica'">Canonical parameters</text><text x="428.806" y="69.97" fill="#000" font-size="11" font-weight="700" font-family="'Helvetica'">w</text><text x="437.362" y="71.66" fill="#000" font-size="8" font-family="'Helvetica'">t</text><ellipse cx="311.64" cy="79" rx="2.5" ry="2.5" fill="#000"/><text x="318.14" y="83.97" fill="#000" font-size="11" textLength="165.72" font-family="'Helvetica'">Global evaluation &amp; checkpointing</text></g><!--entity S_Selector--><g class="entity" data-qualified-name="Server.S_Selector" id="ent0003" data-source-line="48"><rect x="575.95" y="47.5" width="208.09" height="42" fill="#F8FAFC" style="stroke:#475569;stroke-width:1.2;" rx="4" ry="4"/><text x="585.95" y="58.97" fill="#000" font-size="11" textLength="136.313" font-weight="700" font-family="'Helvetica'">Client Manager &amp; Selector</text><ellipse cx="591.45" cy="65" rx="2.5" ry="2.5" fill="#000"/><text x="597.95" y="69.97" fill="#000" font-size="11" textLength="118.61" font-family="'Helvetica'">Samples active cohort S</text><text x="716.56" y="71.66" fill="#000" font-size="8" font-family="'Helvetica'">t</text><text x="721.839" y="69.97" fill="#000" font-size="11" textLength="52.202" font-family="'Helvetica'">⊂ {1, ..., K}</text><ellipse cx="591.45" cy="79" rx="2.5" ry="2.5" fill="#000"/><text x="597.95" y="83.97" fill="#000" font-size="11" textLength="163.84" font-family="'Helvetica'">Tracks client availability &amp; latency</text></g><!--entity S_Agg--><g class="entity" data-qualified-name="Server.S_Agg" id="ent0004" data-source-line="49"><rect x="902.91" y="45" width="288.185" height="47" fill="#F8FAFC" style="stroke:#475569;stroke-width:1.2;" rx="4" ry="4"/><text x="912.91" y="56.47" fill="#000" font-size="11" textLength="161.981" font-weight="700" font-family="'Helvetica'">Federated Aggregator Strategy</text><ellipse cx="918.41" cy="62.5" rx="2.5" ry="2.5" fill="#000"/><text x="924.91" y="67.47" fill="#000" font-size="11" textLength="256.185" font-family="'Helvetica'">Federated averaging (FedAvg / FedMuon / FedProx)</text><ellipse cx="918.41" cy="78.5" rx="2.5" ry="2.5" fill="#000"/><text x="924.91" y="83.47" fill="#000" font-size="11" font-weight="700" font-family="'Helvetica'">w</text><text x="933.466" y="85.16" fill="#000" font-size="8" textLength="11.344" font-family="'Helvetica'">t+1</text><text x="947.866" y="83.47" fill="#000" font-size="11" font-family="'Helvetica'">=</text><text x="957.346" y="83.47" fill="#000" font-size="11" font-weight="700" font-family="'Helvetica'">w</text><text x="965.902" y="85.16" fill="#000" font-size="8" font-family="'Helvetica'">t</text><text x="971.181" y="83.47" fill="#000" font-size="11" textLength="16.199" font-family="'Helvetica'">+ Σ</text><text x="987.38" y="85.16" fill="#000" font-size="8" font-family="'Helvetica'">k</text><text x="994.436" y="83.47" fill="#000" font-size="11" textLength="14.464" font-family="'Helvetica'">(|D</text><text x="1008.901" y="85.16" fill="#000" font-size="8" font-family="'Helvetica'">k</text><text x="1012.901" y="83.47" fill="#000" font-size="11" textLength="46.46" font-family="'Helvetica'">| / |D|) · Δ</text><text x="1059.361" y="83.47" fill="#000" font-size="11" font-weight="700" font-family="'Helvetica'">w</text><text x="1067.917" y="85.16" fill="#000" font-size="8" font-family="'Helvetica'">t</text><text x="1070.139" y="76.16" fill="#000" font-size="8" font-family="'Helvetica'">k</text></g><!--entity C_Data--><g class="entity" data-qualified-name="Client.C_Data" id="ent0009" data-source-line="64"><path d="M30.25,348 C30.25,338 107.999,338 107.999,338 C107.999,338 185.748,338 185.748,348 L185.748,393 C185.748,403 107.999,403 107.999,403 C107.999,403 30.25,403 30.25,393 L30.25,348" style="stroke:#0F172A;stroke-width:1.2;" fill="#F1F5F9"/><path d="M30.25,348 C30.25,358 107.999,358 107.999,358 C107.999,358 185.748,358 185.748,348" style="stroke:#0F172A;stroke-width:1.2;" fill="none"/><text x="40.25" y="370.47" fill="#000" font-size="11" textLength="122.273" font-weight="700" font-family="'Helvetica'">Private Local Dataset D</text><text x="162.523" y="372.16" fill="#000" font-size="8" font-weight="700" font-family="'Helvetica'">k</text><ellipse cx="45.75" cy="379.5" rx="2.5" ry="2.5" fill="#000"/><text x="52.25" y="384.47" fill="#000" font-size="11" textLength="123.498" font-family="'Helvetica'">Strictly on-device storage</text><ellipse cx="45.75" cy="390.5" rx="2.5" ry="2.5" fill="#000"/><text x="52.25" y="395.47" fill="#000" font-size="11" textLength="93.543" font-family="'Helvetica'">No external access</text></g><!--entity C_Train--><g class="entity" data-qualified-name="Client.C_Train" id="ent0010" data-source-line="65"><rect x="277.27" y="351" width="207.458" height="39" fill="#F8FAFC" style="stroke:#475569;stroke-width:1.2;" rx="4" ry="4"/><text x="287.27" y="362.47" fill="#000" font-size="11" textLength="117.976" font-weight="700" font-family="'Helvetica'">Local JAX/Flax Engine</text><ellipse cx="292.77" cy="368.5" rx="2.5" ry="2.5" fill="#000"/><text x="299.27" y="373.47" fill="#000" font-size="11" textLength="160.8" font-family="'Helvetica'">Forward loss &amp; autodiff gradients</text><ellipse cx="292.77" cy="379.5" rx="2.5" ry="2.5" fill="#000"/><text x="299.27" y="384.47" fill="#000" font-size="11" textLength="175.458" font-family="'Helvetica'">Optax state update (AdamW / SGD)</text></g><!--entity C_Priv--><g class="entity" data-qualified-name="Client.C_Priv" id="ent0011" data-source-line="66"><rect x="618.17" y="351" width="201.662" height="39" fill="#F8FAFC" style="stroke:#475569;stroke-width:1.2;" rx="4" ry="4"/><text x="628.17" y="362.47" fill="#000" font-size="11" textLength="125.941" font-weight="700" font-family="'Helvetica'">Privacy &amp; Sparsification</text><ellipse cx="633.67" cy="368.5" rx="2.5" ry="2.5" fill="#000"/><text x="640.17" y="373.47" fill="#000" font-size="11" textLength="154.344" font-family="'Helvetica'">DP-SGD (Clipping C + Noise σ)</text><ellipse cx="633.67" cy="379.5" rx="2.5" ry="2.5" fill="#000"/><text x="640.17" y="384.47" fill="#000" font-size="11" textLength="169.662" font-family="'Helvetica'">Top-K sparsity + INT8 quantization</text></g><!--entity C_App--><g class="entity" data-qualified-name="Client.C_App" id="ent0012" data-source-line="67"><rect x="953.66" y="345.5" width="180.686" height="50" fill="#F8FAFC" style="stroke:#475569;stroke-width:1.2;" rx="4" ry="4"/><text x="963.66" y="356.97" fill="#000" font-size="11" textLength="100.848" font-weight="700" font-family="'Helvetica'">ClientApp Interface</text><ellipse cx="969.16" cy="363" rx="2.5" ry="2.5" fill="#000"/><text x="975.66" y="367.97" fill="#000" font-size="11" textLength="108.233" font-family="'Helvetica'">Ingests global weights</text><text x="1086.949" y="367.97" fill="#000" font-size="11" font-weight="700" font-family="'Helvetica'">w</text><text x="1095.505" y="369.66" fill="#000" font-size="8" font-family="'Helvetica'">t</text><ellipse cx="969.16" cy="382" rx="2.5" ry="2.5" fill="#000"/><text x="975.66" y="386.97" fill="#000" font-size="11" textLength="133.907" font-family="'Helvetica'">Encodes parameter delta Δ</text><text x="1109.567" y="386.97" fill="#000" font-size="11" font-weight="700" font-family="'Helvetica'">w</text><text x="1118.123" y="388.66" fill="#000" font-size="8" font-family="'Helvetica'">t</text><text x="1120.346" y="379.66" fill="#000" font-size="8" font-family="'Helvetica'">k</text></g><!--entity Transport--><g class="entity" data-qualified-name="Transport" id="ent0007" data-source-line="58"><path d="M825.442,189.152 C835.111,173.559 846.837,172.474 857.247,188.404 C865.137,174.415 880.214,172.95 887.539,188.974 C895.398,170.887 906.695,168.361 920.11,183.533 C929.967,168.465 943.93,169.202 952.482,184.906 C960.363,169.945 972.248,167.465 983.54,181.216 C991.32,165.703 1004.588,164.128 1013.776,179.852 C1024.864,161.233 1038.392,164.71 1048.473,180.857 C1059.565,167.802 1068.837,166.374 1078.875,181.976 C1091.688,167.708 1103.191,170.817 1112.188,186.255 C1120.082,173.849 1133.278,172.671 1139.942,187.509 C1151.158,171.318 1162.657,172.505 1172.799,188.602 C1182.705,172.705 1198.583,171.353 1207.906,189.209 C1217.565,176.89 1229.484,176.043 1237.463,191.027 C1245.891,175.166 1256.613,173.01 1267.772,188.376 C1272.84,190.396 1273.99,193.921 1269.405,197.642 C1274.81,197.746 1275.762,201.354 1273.323,205.413 C1276.523,209.866 1275.613,213.667 1270.188,215.418 C1273.144,219.474 1271.566,222.357 1266.978,223.365 C1260.852,239.657 1251.23,239.295 1239.705,228.878 C1227.679,245.375 1213.695,244.441 1202.992,227.429 C1195.989,242.516 1185.632,242.547 1175.978,230.023 C1166.806,244.093 1150.029,245.678 1141.966,228.804 C1133.146,244.02 1122.108,250.336 1108.482,233.887 C1098.352,246.728 1083.701,247.188 1075.885,231.265 C1070.652,246.285 1056.119,251.703 1045.324,236.979 C1035.465,250.334 1019.436,250.046 1012.9,233.389 C1004.095,249.617 993.424,250.723 982.609,235.314 C970.841,246.785 959.288,245.775 953.184,229.341 C940.957,244.546 928.549,244.982 918.133,227.404 C911.601,239.818 898.175,242.999 889.888,229.301 C879.921,244.056 862.732,242.312 855.102,226.63 C843.81,242.144 831.143,240.892 821.937,224.464 C816.512,222.617 814.877,219.728 817.993,214.5 C811.804,213.767 810.517,210.764 812.958,205.306 C809.871,200.937 810.975,196.273 817.136,196.103 C816.144,189.874 819.856,187.522 825.442,189.152" style="stroke:#2563EB;stroke-width:1.3;" fill="#EFF6FF"/><text x="828.68" y="202.47" fill="#000" font-size="11" textLength="243.869" font-weight="700" font-family="'Helvetica'">Tier 2: Secure Transport Channel (gRPC / TLS)</text><text x="828.68" y="213.47" fill="#000" font-size="11" textLength="430.633" font-style="italic" font-family="'Helvetica'">Model parameters only • Raw user data never leaves edge devices (Zero Data Leakage)</text></g><!--link S_Model to S_Selector--><g class="link" data-entity-1="ent0002" data-entity-2="ent0003" id="lnk5" data-source-line="51" data-link-type="dependency"><path d="M494.28,68.5 C520.63,68.5 544.15,68.5 570.75,68.5" style="stroke:#1E293B;stroke-width:1.3;" fill="none" id="S_Model-to-S_Selector"/><polygon points="575.75,68.5,566.75,64.5,570.75,68.5,566.75,72.5,575.75,68.5" fill="#1E293B" style="stroke:#1E293B;stroke-width:1.3;stroke-linejoin:miter;stroke-miterlimit:10;"/><text x="508.41" y="58.97" fill="#000" font-size="11" textLength="39.735" font-family="'Helvetica'">Weights</text><text x="551.202" y="58.97" fill="#000" font-size="11" font-weight="700" font-family="'Helvetica'">w</text><text x="559.758" y="60.66" fill="#000" font-size="8" font-family="'Helvetica'">t</text></g><!--link S_Selector to S_Agg--><g class="link" data-entity-1="ent0003" data-entity-2="ent0004" id="lnk6" data-source-line="52" data-link-type="dependency"><path d="M784.19,68.5 C820.95,68.5 857.98,68.5 897.48,68.5" style="stroke:#1E293B;stroke-width:1.3;" fill="none" id="S_Selector-to-S_Agg"/><polygon points="902.48,68.5,893.48,64.5,897.48,68.5,893.48,72.5,902.48,68.5" fill="#1E293B" style="stroke:#1E293B;stroke-width:1.3;stroke-linejoin:miter;stroke-miterlimit:10;"/><text x="798.98" y="58.97" fill="#000" font-size="11" textLength="87.436" font-family="'Helvetica'">Sampled cohort S</text><text x="886.416" y="60.66" fill="#000" font-size="8" font-family="'Helvetica'">t</text></g><!--link C_Data to C_Train--><g class="link" data-entity-1="ent0009" data-entity-2="ent0010" id="lnk13" data-source-line="69" data-link-type="dependency"><path d="M186.23,370.5 C214.43,370.5 241.72,370.5 271.79,370.5" style="stroke:#1E293B;stroke-width:1.3;" fill="none" id="C_Data-to-C_Train"/><polygon points="276.79,370.5,267.79,366.5,271.79,370.5,267.79,374.5,276.79,370.5" fill="#1E293B" style="stroke:#1E293B;stroke-width:1.3;stroke-linejoin:miter;stroke-miterlimit:10;"/><text x="200.51" y="363.97" fill="#000" font-size="11" textLength="62.358" font-family="'Helvetica'">Mini-batches</text></g><!--link C_Train to C_Priv--><g class="link" data-entity-1="ent0010" data-entity-2="ent0011" id="lnk14" data-source-line="70" data-link-type="dependency"><path d="M485.17,370.5 C527.36,370.5 570.9,370.5 612.78,370.5" style="stroke:#1E293B;stroke-width:1.3;" fill="none" id="C_Train-to-C_Priv"/><polygon points="617.78,370.5,608.78,366.5,612.78,370.5,608.78,374.5,617.78,370.5" fill="#1E293B" style="stroke:#1E293B;stroke-width:1.3;stroke-linejoin:miter;stroke-miterlimit:10;"/><text x="499.45" y="363.97" fill="#000" font-size="11" textLength="104.548" font-family="'Helvetica'">Per-sample gradients</text></g><!--link C_Priv to C_App--><g class="link" data-entity-1="ent0011" data-entity-2="ent0012" id="lnk15" data-source-line="71" data-link-type="dependency"><path d="M820.05,370.5 C862.63,370.5 906.81,370.5 948.21,370.5" style="stroke:#1E293B;stroke-width:1.3;" fill="none" id="C_Priv-to-C_App"/><polygon points="953.21,370.5,944.21,366.5,948.21,370.5,944.21,374.5,953.21,370.5" fill="#1E293B" style="stroke:#1E293B;stroke-width:1.3;stroke-linejoin:miter;stroke-miterlimit:10;"/><text x="834.74" y="360.97" fill="#000" font-size="11" textLength="89.88" font-family="'Helvetica'">Processed delta Δ</text><text x="924.62" y="360.97" fill="#000" font-size="11" font-weight="700" font-family="'Helvetica'">w</text><text x="933.176" y="362.66" fill="#000" font-size="8" font-family="'Helvetica'">t</text><text x="935.399" y="353.66" fill="#000" font-size="8" font-family="'Helvetica'">k</text></g><!--link Server to Transport--><!--link Transport to Client--><!--link S_Selector to Transport--><g class="link" data-entity-1="ent0003" data-entity-2="ent0007" id="lnk18" data-source-line="81" data-link-type="dependency"><path d="M711.15,89.89 C742.16,109.37 791.7,138.31 838,156 C861.07,164.81 881.385,171.076 905.955,177.336" style="stroke:#1E293B;stroke-width:1.3;" fill="none" id="S_Selector-to-Transport"/><polygon points="910.8,178.57,903.066,172.472,905.955,177.336,901.091,180.224,910.8,178.57" fill="#1E293B" style="stroke:#1E293B;stroke-width:1.3;stroke-linejoin:miter;stroke-miterlimit:10;"/><text x="839" y="149.47" fill="#000" font-size="11" textLength="56.214" font-weight="700" font-family="'Helvetica'">[Downlink]</text><text x="898.27" y="149.47" fill="#000" font-size="11" textLength="122.294" font-family="'Helvetica'">Broadcast global weights</text><text x="1023.621" y="149.47" fill="#000" font-size="11" font-weight="700" font-family="'Helvetica'">w</text><text x="1032.177" y="151.16" fill="#000" font-size="8" font-family="'Helvetica'">t</text></g><!--link Transport to C_App--><g class="link" data-entity-1="ent0007" data-entity-2="ent0012" id="lnk19" data-source-line="82" data-link-type="dependency"><path d="M976.13,231.3 C967.31,237.41 959.47,244.89 954,254 C933.86,287.57 966.415,319.695 998.825,342.235" style="stroke:#1E293B;stroke-width:1.3;" fill="none" id="Transport-to-C_App"/><polygon points="1002.93,345.09,997.825,336.667,998.825,342.235,993.257,343.235,1002.93,345.09" fill="#1E293B" style="stroke:#1E293B;stroke-width:1.3;stroke-linejoin:miter;stroke-miterlimit:10;"/><text x="955" y="265.97" fill="#000" font-size="11" textLength="39.741" font-family="'Helvetica'">Receive</text><text x="997.797" y="265.97" fill="#000" font-size="11" font-weight="700" font-family="'Helvetica'">w</text><text x="1006.353" y="267.66" fill="#000" font-size="8" font-family="'Helvetica'">t</text></g><!--reverse link Transport to C_App--><g class="link" data-entity-1="ent0007" data-entity-2="ent0012" id="lnk21" data-source-line="85" data-link-type="dependency"><path d="M1042.535,236.396 C1042.235,243.696 1042.15,246.66 1042,254 C1041.34,285.48 1042.25,321.79 1043.04,345.16" style="stroke:#1E293B;stroke-width:1.3;" fill="none" id="Transport-backto-C_App"/><polygon points="1042.74,231.4,1038.374,240.228,1042.535,236.396,1046.367,240.557,1042.74,231.4" fill="#1E293B" style="stroke:#1E293B;stroke-width:1.3;stroke-linejoin:miter;stroke-miterlimit:10;"/><text x="1043" y="268.47" fill="#000" font-size="11" textLength="40.938" font-weight="700" font-family="'Helvetica'">[Uplink]</text><text x="1086.995" y="268.47" fill="#000" font-size="11" textLength="80.69" font-family="'Helvetica'">Transmit delta Δ</text><text x="1167.685" y="268.47" fill="#000" font-size="11" font-weight="700" font-family="'Helvetica'">w</text><text x="1176.241" y="270.16" fill="#000" font-size="8" font-family="'Helvetica'">t</text><text x="1178.463" y="261.16" fill="#000" font-size="8" font-family="'Helvetica'">k</text></g><!--reverse link S_Agg to Transport--><g class="link" data-entity-1="ent0004" data-entity-2="ent0007" id="lnk23" data-source-line="86" data-link-type="dependency"><path d="M1044.565,97.324 C1043.445,111.114 1042.56,124.06 1042,140 C1041.75,147.11 1041.85,148.89 1042,156 C1042.15,163.34 1042.44,171.3 1042.74,178.6" style="stroke:#1E293B;stroke-width:1.3;" fill="none" id="S_Agg-backto-Transport"/><polygon points="1044.97,92.34,1040.255,100.987,1044.565,97.324,1048.228,101.634,1044.97,92.34" fill="#1E293B" style="stroke:#1E293B;stroke-width:1.3;stroke-linejoin:miter;stroke-miterlimit:10;"/><text x="1043" y="150.97" fill="#000" font-size="11" textLength="153.484" font-family="'Helvetica'">Deliver updates for aggregation</text></g><?plantuml-src hLTHRXit4FtNAGOkaCXDP5TsdDY68q1PxJfgPDbOANNHD32eNMf5Y28t92NPYGCKxK_GxvwWFKJ_Uu3q3Zb9XzpLUctBWL5RFz9oXpFptimyKaQcO2GCf35o0Z5JD39CYaf5Zvb8YI8Jc4WXev6I4mf3mZKjlT8Z4iiv4ycrDqfEHHn99QY2xT9wJ8TaoaqWXUaIzBZoal8PDImYAykjUkmzXNgzx9g8iQOfFDagBGePKxkuiLsfF8GZmganT1UEb1nIhH4HuT2CI4mdB88U9uR20sXHtD4bixEIevH4Ov9G-501_Bp0fyHXyIIN2hu9t2Tx9rLCLRvUzpTsDb-KrliZ5eq5neRwsfPRTsZC6QV8DeylbXp0ZSh7CkSHKV6DAMm7pS2xdiAJPrjRJtTkIE6A_vWOCY3wPfZrO2lOkHxZkw3-RADvknWHbzCRGVX1y7GPZnjRJpVzctZSl1o0A2NdUO3hPRYsyI4y_vyVtDfl-o7KTy7pk_smsO6U7_w0AzxXOTXgTvlzmn2g0PTpRFSULJEgcccwUfUGYpvSwJFqQIDJOHHsSUOU0ICzJ123iAz7NW6Y5vOPGQwZLlO6ZNqk1-Zc00U6GqWJfeqwsriVD7uMtu97X1GuZ1mSnTHGfG4tpQt1dfuE6cPltNvPuzmJdH4-9LOrSAIY4Ot6gMJ2e2faMPnaeSfzMoJZSOQmu808nAfmVuzoL22f5Wdro2JbL0D1MPfHYEH8AWEzSYhmvVTVuKFzCQojhJs6Ln_jjhv2-ZIse7DFPeHnCc2ScJECOQTVH6TvTek8onCCAFOWsiVGJ1954yTtpzYbf63jmeWWuIInWbZ5nUOiWNNxzc2AvBXVA4YdgtRFPL8VrNCipvUo3O_WyrzkOPmlLCzRvUTpz7xUEb-5V_w6ptyiSu6_qymwRUJ84L41sg5UbAgcM38ojKQPdLqufdPrUJlasmlhaWSRPJUlOxoqWFSpd1iOnFTUXpxWW7PxHuTX7xoNpMxNxq0r2OyyfAZVwTrfA3D9ittXfjA6fD5KKTjlGgSMcJSYGY27vP1Pd-onHaPlQRIau6VmvPS_8IHpc6hqQPKP1BM3oocsamOQemp4TCOYVAZ-H9M4bZNgK68L0hsphA954lT1v-Ok17xB3vjzlmL-Qzy7hzD6yIl49XlT-vKv6xIO9T_YpWLY35y-VIeF-P8q70UvVQPvnIbdAtQasCmU-nrfvSqogAc1IrDKY8vHB39O6Ibg6V6WiQinJ_ksAu6UOlNibO94M1ITHJvnLIaVdOMAP36_R_wu7d1o2hv0YQ25UaWrjuPSubdr0CZKo9WDXv0e4bimsXeTfWOtQcCHJDFOVbMRCPaSOulrzbiv-1Di0IQMAvd37rdzws43QZP4cRUYlKYZTLH3Hr151jFKAfY7gjEL3EdxzpSdMNsPrbw1ThjHI1z1kzlVXdTJWcB_tldAix2XlgRtM2re2wHmIAA2XhP8g4PvIR9JPVuLjR7cleZibUzYc714EF9_I_NpJcmIbzGlBs0XNGisT-602LOR48E7cyvDirSbMuSPBvnKrRJJkelwvLkSHMc7JS3TK6qBOR_VDlyxooLUNFfj3oyng9ElsjrzR0cif1_MtE07dSFZk_ZFRnsrDoCMnrIynJy80l5UYDE5LbwroRh3eclX0cTY34ESSgWkV3QWIyrSgZ4KrgkLyh5pDHWIZ7I-MRXxQtc55qgIE2BQtARNokakqinB5zA8sal9qcq8udLQWf0BqsK86QxLIkQnDasNv9vvoJ9txoRCtBvNIjaxxulpk4KvivHcMg9XYEoH_8PZ___z1m00?></g></svg>
